<?xml version="1.0" encoding="UTF-8"?>
<!DOCTYPE svg PUBLIC "-//W3C//DTD SVG 1.1//EN" "http://www.w3.org/Graphics/SVG/1.1/DTD/svg11.dtd">
<!-- Creator: CorelDRAW X7 -->
<svg xmlns="http://www.w3.org/2000/svg" xml:space="preserve" width="1024px" height="126px" version="1.1" style="shape-rendering:geometricPrecision; text-rendering:geometricPrecision; image-rendering:optimizeQuality; fill-rule:evenodd; clip-rule:evenodd"
viewBox="0 0 102400 12600"
 xmlns:xlink="http://www.w3.org/1999/xlink">
 <defs>
  <style type="text/css">
   <![CDATA[
    .fil0 {fill:#F7F5E6}
    .fil1 {fill:#F7F5E6;fill-rule:nonzero}
   ]]>
  </style>
 </defs>
 <g id="Layer_x0020_1">
  <metadata id="CorelCorpID_0Corel-Layer"/>
  <g id="_447675672">
   <g>
    <path class="fil0" d="M17576 4629l0 3232c0,367 -300,667 -667,667l-1 0c-367,0 -667,-300 -667,-667l0 -3232c0,-368 300,-668 667,-668l1 0c367,0 667,300 667,668z"/>
    <path class="fil0" d="M19324 5664l0 1161c0,368 -301,668 -668,668l0 0c-367,0 -668,-300 -668,-668l0 -1161c0,-367 301,-668 668,-668l0 0c367,0 668,301 668,668z"/>
    <path class="fil0" d="M1738 7967l0 -3233c0,-367 301,-667 668,-667l0 0c367,0 667,300 667,667l0 3233c0,367 -300,667 -667,667l0 0c-367,0 -668,-300 -668,-667z"/>
    <path class="fil0" d="M-9 6955l0 -1209c0,-367 300,-667 667,-667l0 0c367,0 668,300 668,667l0 1209c0,367 -301,667 -668,667l0 0c-367,0 -667,-300 -667,-667z"/>
    <path class="fil0" d="M6034 1323c2150,-1566 5086,-1567 7236,0l-1597 1597c-1240,-744 -2802,-744 -4043,0l-1596 -1597zm8594 1359c1567,2150 1567,5086 0,7235l-1596 -1596c743,-1240 743,-2802 0,-4043l1596 -1596zm-1358 8594c-2150,1567 -5086,1567 -7236,0l1596 -1596c1241,743 2803,743 4043,0l1597 1596zm-8595 -1358c-1567,-2150 -1567,-5086 0,-7236l1597 1596c-743,1241 -744,2803 -1,4043l-1596 1597z"/>
    <path class="fil0" d="M10417 4963l1757 1015 0 1c60,34 113,85 150,150 112,196 45,446 -151,559l-1757 1014 -1724 995c-67,48 -149,76 -238,76 -227,0 -411,-184 -411,-411l0 -2029 2 -2029c0,-70 18,-140 55,-204 112,-196 362,-264 558,-151l1736 1002c8,4 16,8 23,12z"/>
   </g>
   <g>
    <path class="fil1" d="M25042 201l952 0 1202 3599 1207 -3599 950 0 865 5160 -948 0 -551 -3259 -1092 3259 -867 0 -1088 -3259 -562 3259 -958 0 890 -5160zm7875 1344l971 0 0 1835c0,357 25,605 74,744 49,139 128,246 237,324 109,77 244,115 404,115 159,0 295,-38 407,-114 111,-75 194,-186 248,-334 39,-110 60,-345 60,-704l0 -1866 955 0 0 1614c0,666 -52,1122 -158,1367 -128,300 -318,528 -569,689 -250,159 -569,239 -954,239 -419,0 -757,-93 -1016,-280 -259,-187 -441,-447 -546,-781 -76,-231 -113,-651 -113,-1261l0 -1587zm8660 540l-592 595c-239,-239 -457,-359 -654,-359 -106,0 -190,23 -251,68 -61,46 -91,102 -91,169 0,52 19,98 57,142 39,43 134,101 286,177l350 175c369,181 623,366 761,554 138,189 206,410 206,664 0,337 -125,620 -374,845 -249,227 -583,339 -1002,339 -556,0 -1002,-217 -1334,-651l591 -642c113,130 244,237 396,317 151,80 285,121 403,121 126,0 229,-30 305,-91 78,-61 116,-130 116,-209 0,-148 -138,-292 -418,-430l-322 -162c-618,-310 -927,-698 -927,-1164 0,-301 116,-559 349,-772 232,-213 529,-320 891,-320 248,0 480,56 699,165 218,109 403,265 555,469zm3217 -2107c168,0 311,61 431,182 121,121 181,267 181,440 0,170 -60,315 -178,435 -119,119 -262,179 -428,179 -170,0 -315,-61 -435,-183 -121,-122 -181,-271 -181,-446 0,-167 60,-310 179,-428 118,-119 262,-179 431,-179zm-480 1567l955 0 0 3816 -955 0 0 -3816zm7571 776l-797 438c-150,-156 -297,-264 -443,-325 -146,-61 -317,-91 -514,-91 -358,0 -648,106 -868,318 -222,213 -332,485 -332,818 0,324 107,587 319,792 213,205 492,307 838,307 428,0 761,-147 1000,-439l753 518c-409,531 -986,797 -1733,797 -672,0 -1197,-198 -1577,-595 -380,-396 -570,-860 -570,-1392 0,-369 92,-708 276,-1018 186,-310 444,-554 775,-732 331,-177 701,-266 1111,-266 379,0 719,76 1021,227 302,151 549,365 741,643zm4490 -2120l2853 0 0 970 -942 0 0 4190 -999 0 0 -4190 -912 0 0 -970zm9244 3521l-3072 0c44,272 163,489 354,651 192,160 437,241 734,241 357,0 663,-126 919,-378l803 380c-200,285 -441,496 -720,634 -281,136 -612,204 -997,204 -596,0 -1083,-188 -1457,-565 -375,-376 -563,-848 -563,-1415 0,-580 188,-1063 563,-1446 374,-385 844,-577 1411,-577 600,0 1088,192 1464,574 376,384 564,888 564,1517l-3 180zm-952 -747c-64,-208 -188,-378 -374,-509 -187,-131 -402,-195 -649,-195 -267,0 -501,73 -703,220 -126,91 -243,253 -351,484l2077 0zm3737 -1430l955 0 0 446c164,-181 347,-317 548,-405 200,-90 419,-135 656,-135 238,0 455,59 647,177 193,117 347,289 465,515 152,-226 339,-398 560,-515 222,-118 465,-177 727,-177 272,0 512,64 718,190 207,125 354,291 445,493 90,204 135,534 135,992l0 2235 -955 0 0 -1928c0,-432 -54,-724 -163,-876 -109,-152 -273,-229 -490,-229 -167,0 -315,47 -446,140 -131,93 -230,222 -293,386 -64,164 -96,428 -96,792l0 1715 -956 0 0 -1841c0,-340 -25,-587 -76,-739 -51,-153 -127,-266 -228,-341 -102,-75 -225,-112 -369,-112 -160,0 -306,47 -437,142 -132,94 -229,226 -295,396 -64,170 -97,438 -97,804l0 1691 -955 0 0 -3816zm9729 0l0 419c172,-170 359,-299 560,-384 202,-85 417,-129 646,-129 497,0 920,188 1268,563 349,377 522,858 522,1446 0,567 -179,1041 -540,1422 -359,382 -786,572 -1279,572 -219,0 -424,-39 -613,-117 -189,-78 -377,-206 -564,-385l0 1803 -956 0 0 -5210 956 0zm1003 783c-300,0 -551,103 -748,308 -199,206 -298,474 -298,806 0,339 99,613 298,822 197,209 448,314 748,314 293,0 538,-107 738,-319 200,-213 300,-484 300,-813 0,-327 -99,-596 -295,-804 -195,-210 -443,-314 -743,-314zm4696 -2256l955 0 0 5289 -955 0 0 -5289zm6658 1473l956 0 0 3816 -956 0 0 -406c-187,177 -375,304 -563,382 -188,78 -393,117 -612,117 -495,0 -921,-190 -1282,-572 -360,-381 -540,-855 -540,-1422 0,-588 175,-1069 523,-1446 349,-375 772,-563 1270,-563 230,0 444,44 646,129 201,85 386,214 558,384l0 -419zm-1008 783c-297,0 -543,104 -739,314 -196,208 -294,477 -294,804 0,329 99,600 299,813 200,212 446,319 738,319 301,0 551,-105 749,-314 198,-209 298,-483 298,-822 0,-332 -100,-600 -298,-806 -198,-205 -450,-308 -753,-308zm5054 -2192l955 0 0 1409 568 0 0 826 -568 0 0 2990 -955 0 0 -2990 -489 0 0 -826 489 0 0 -1409zm7870 3586l-3072 0c44,272 163,489 354,651 192,160 437,241 734,241 357,0 663,-126 919,-378l803 380c-200,285 -441,496 -720,634 -281,136 -612,204 -997,204 -596,0 -1083,-188 -1457,-565 -375,-376 -563,-848 -563,-1415 0,-580 188,-1063 563,-1446 374,-385 844,-577 1411,-577 600,0 1088,192 1464,574 376,384 564,888 564,1517l-3 180zm-952 -747c-64,-208 -188,-378 -374,-509 -187,-131 -402,-195 -649,-195 -267,0 -501,73 -703,220 -126,91 -243,253 -351,484l2077 0z"/>
    <path class="fil1" d="M30455 11171l259 -156c183,337 394,506 633,506 103,0 199,-24 289,-72 90,-47 159,-112 206,-192 47,-80 71,-165 71,-255 0,-102 -35,-202 -105,-300 -95,-136 -269,-299 -524,-490 -255,-193 -414,-331 -476,-417 -108,-144 -162,-300 -162,-467 0,-133 32,-254 95,-363 64,-109 154,-195 270,-258 117,-63 242,-94 378,-94 145,0 280,35 405,107 126,71 259,202 399,392l-249 190c-116,-153 -214,-253 -296,-302 -81,-48 -170,-73 -265,-73 -124,0 -226,38 -304,112 -79,76 -119,167 -119,277 0,66 15,130 42,192 28,63 79,130 153,204 39,38 172,140 396,304 264,196 447,370 545,521 99,153 148,306 148,459 0,221 -84,414 -252,577 -169,164 -373,245 -614,245 -186,0 -355,-49 -505,-149 -151,-99 -291,-265 -418,-498zm2486 -2613c66,0 122,23 168,71 47,46 70,104 70,170 0,65 -23,121 -70,168 -46,48 -102,71 -168,71 -66,0 -121,-23 -168,-71 -46,-47 -70,-103 -70,-168 0,-66 24,-124 70,-170 47,-48 102,-71 168,-71zm-144 926l289 0 0 2258 -289 0 0 -2258zm893 0l289 0 0 391c102,-144 205,-250 312,-316 147,-87 301,-130 463,-130 109,0 213,21 311,65 99,42 179,100 241,170 63,72 116,174 163,307 96,-177 217,-312 362,-404 145,-92 301,-138 468,-138 156,0 294,40 413,118 120,79 208,189 266,330 58,141 88,352 88,634l0 1231 -298 0 0 -1232c0,-242 -17,-408 -52,-498 -34,-91 -93,-164 -177,-219 -84,-56 -183,-83 -299,-83 -140,0 -269,42 -385,124 -117,83 -202,194 -256,332 -54,138 -81,369 -81,692l0 884 -289 0 0 -1155c0,-272 -17,-457 -51,-555 -34,-98 -93,-176 -177,-234 -85,-59 -185,-88 -301,-88 -135,0 -260,40 -377,121 -117,81 -203,190 -259,326 -56,137 -85,347 -85,629l0 956 -289 0 0 -2258zm3992 0l289 0 0 416c115,-158 246,-276 396,-354 149,-78 316,-117 500,-117 321,0 595,116 824,346 228,230 342,508 342,832 0,331 -114,612 -340,844 -226,230 -498,346 -818,346 -179,0 -344,-38 -495,-112 -151,-75 -287,-186 -409,-334l0 1215 -289 0 0 -3082zm1164 226c-252,0 -463,87 -634,262 -172,175 -258,392 -258,652 0,171 38,325 115,461 76,137 186,244 328,324 144,80 294,120 452,120 156,0 303,-40 440,-121 138,-80 247,-193 329,-337 81,-145 121,-296 121,-454 0,-161 -40,-312 -121,-455 -81,-143 -189,-255 -326,-333 -136,-80 -285,-119 -446,-119zm1689 -1097l289 0 0 3129 -289 0 0 -3129zm2799 2380l245 129c-80,157 -173,284 -279,380 -105,96 -224,170 -355,220 -133,50 -282,75 -448,75 -370,0 -658,-120 -867,-361 -208,-241 -312,-513 -312,-817 0,-285 88,-540 265,-763 223,-284 523,-427 898,-427 386,0 695,146 925,437 163,206 247,462 250,770l-2041 0c6,262 90,476 253,642 163,168 364,251 603,251 115,0 228,-20 337,-59 109,-40 202,-92 278,-158 77,-66 160,-172 248,-319zm3 -607c-39,-156 -96,-279 -170,-372 -75,-92 -174,-167 -296,-223 -123,-57 -252,-86 -386,-86 -223,0 -415,71 -575,214 -117,104 -205,259 -265,467l1692 0zm1173 897c71,0 130,24 180,74 50,50 75,111 75,183 0,71 -25,131 -75,181 -50,50 -109,76 -180,76 -70,0 -131,-26 -181,-76 -50,-50 -74,-110 -74,-181 0,-72 24,-133 74,-183 50,-50 111,-74 181,-74zm2081 -2594l306 0 0 2755 1178 0 0 298 -1484 0 0 -3053zm2018 -131c66,0 122,23 169,71 47,46 70,104 70,170 0,65 -23,121 -70,168 -47,48 -103,71 -169,71 -65,0 -120,-23 -167,-71 -47,-47 -70,-103 -70,-168 0,-66 23,-124 70,-170 47,-48 102,-71 167,-71zm-144 926l289 0 0 2258 -289 0 0 -2258zm2845 0l289 0 0 1797c0,316 -28,548 -83,695 -76,206 -207,366 -396,478 -188,112 -414,168 -677,168 -194,0 -367,-28 -522,-83 -153,-55 -279,-128 -376,-221 -96,-92 -186,-228 -267,-406l315 0c85,150 196,261 332,333 135,73 304,109 504,109 199,0 366,-37 502,-110 137,-74 234,-166 292,-276 58,-111 87,-291 87,-539l0 -117c-109,139 -243,245 -401,318 -157,75 -325,112 -502,112 -208,0 -403,-52 -586,-155 -182,-103 -323,-241 -423,-415 -100,-174 -150,-365 -150,-574 0,-209 52,-403 156,-584 103,-180 247,-323 431,-428 183,-104 377,-157 580,-157 169,0 327,35 473,104 146,68 287,183 422,344l0 -393zm-858 226c-164,0 -317,39 -458,119 -142,79 -252,189 -332,329 -80,141 -121,292 -121,456 0,247 83,451 249,613 166,162 381,243 645,243 267,0 482,-80 644,-241 162,-160 244,-371 244,-632 0,-170 -38,-322 -112,-455 -75,-133 -181,-239 -318,-316 -136,-77 -284,-116 -441,-116zm1767 -1097l289 0 0 1279c118,-155 248,-271 389,-347 142,-78 295,-116 460,-116 169,0 319,43 450,128 132,86 229,202 291,345 62,145 93,371 93,679l0 1161 -289 0 0 -1076c0,-259 -10,-433 -31,-520 -36,-149 -102,-261 -197,-336 -95,-75 -219,-113 -374,-113 -176,0 -334,58 -474,174 -139,116 -231,260 -276,431 -28,111 -42,315 -42,613l0 827 -289 0 0 -3129zm2843 30l289 0 0 841 459 0 0 251 -459 0 0 2007 -289 0 0 -2007 -395 0 0 -251 395 0 0 -841zm884 841l299 0 689 1637 721 -1637 53 0 722 1637 703 -1637 298 0 -975 2258 -56 0 -718 -1616 -720 1616 -58 0 -958 -2258zm5744 1509l245 129c-81,157 -173,284 -279,380 -105,96 -224,170 -355,220 -133,50 -282,75 -448,75 -370,0 -658,-120 -867,-361 -208,-241 -312,-513 -312,-817 0,-285 88,-540 265,-763 223,-284 523,-427 897,-427 387,0 695,146 926,437 163,206 247,462 250,770l-2041 0c6,262 90,476 253,642 163,168 364,251 602,251 116,0 229,-20 338,-59 109,-40 202,-92 278,-158 77,-66 160,-172 248,-319zm3 -607c-39,-156 -96,-279 -170,-372 -75,-92 -174,-167 -296,-223 -123,-57 -252,-86 -386,-86 -223,0 -415,71 -575,214 -117,104 -205,259 -266,467l1693 0zm955 -1828c66,0 122,23 169,71 47,46 70,104 70,170 0,65 -23,121 -70,168 -47,48 -103,71 -169,71 -65,0 -120,-23 -167,-71 -47,-47 -70,-103 -70,-168 0,-66 23,-124 70,-170 47,-48 102,-71 167,-71zm-144 926l289 0 0 2258 -289 0 0 -2258zm2845 0l289 0 0 1797c0,316 -28,548 -83,695 -76,206 -208,366 -396,478 -188,112 -414,168 -677,168 -194,0 -367,-28 -522,-83 -153,-55 -279,-128 -376,-221 -96,-92 -186,-228 -267,-406l314 0c86,150 197,261 333,333 135,73 304,109 504,109 199,0 366,-37 502,-110 137,-74 234,-166 292,-276 58,-111 87,-291 87,-539l0 -117c-109,139 -243,245 -401,318 -157,75 -325,112 -503,112 -207,0 -402,-52 -585,-155 -182,-103 -323,-241 -423,-415 -100,-174 -150,-365 -150,-574 0,-209 52,-403 156,-584 103,-180 247,-323 431,-428 183,-104 377,-157 580,-157 169,0 327,35 473,104 146,68 287,183 422,344l0 -393zm-858 226c-164,0 -318,39 -459,119 -141,79 -251,189 -331,329 -80,141 -121,292 -121,456 0,247 83,451 249,613 166,162 381,243 645,243 267,0 482,-80 644,-241 162,-160 244,-371 244,-632 0,-170 -38,-322 -112,-455 -75,-133 -181,-239 -318,-316 -136,-77 -284,-116 -441,-116zm1767 -1097l289 0 0 1279c118,-155 248,-271 389,-347 142,-78 295,-116 460,-116 169,0 319,43 450,128 131,86 229,202 291,345 62,145 93,371 93,679l0 1161 -289 0 0 -1076c0,-259 -10,-433 -31,-520 -36,-149 -102,-261 -197,-336 -95,-75 -219,-113 -374,-113 -176,0 -334,58 -474,174 -139,116 -232,260 -276,431 -28,111 -42,315 -42,613l0 827 -289 0 0 -3129zm2843 30l289 0 0 841 459 0 0 251 -459 0 0 2007 -289 0 0 -2007 -395 0 0 -251 395 0 0 -841zm1509 2640c70,0 130,24 180,74 50,50 75,111 75,183 0,71 -25,131 -75,181 -50,50 -110,76 -180,76 -71,0 -131,-26 -181,-76 -50,-50 -75,-110 -75,-181 0,-72 25,-133 75,-183 50,-50 110,-74 181,-74zm2098 -2594l609 0c340,0 570,15 691,42 182,41 329,130 442,267 114,136 171,304 171,503 0,166 -39,311 -117,437 -78,126 -190,221 -336,285 -146,65 -347,97 -603,99l1099 1420 -375 0 -1099 -1420 -176 0 0 1420 -306 0 0 -3053zm306 298l0 1037 527 5c205,0 356,-20 454,-59 98,-39 174,-100 229,-185 55,-85 83,-180 83,-286 0,-102 -28,-195 -84,-279 -55,-83 -128,-143 -219,-179 -90,-36 -240,-54 -450,-54l-540 0zm4117 2006l245 129c-81,157 -174,284 -279,380 -106,96 -224,170 -356,220 -133,50 -281,75 -448,75 -370,0 -658,-120 -866,-361 -209,-241 -313,-513 -313,-817 0,-285 89,-540 265,-763 223,-284 523,-427 898,-427 386,0 695,146 925,437 164,206 247,462 250,770l-2040 0c5,262 90,476 252,642 163,168 364,251 603,251 115,0 228,-20 337,-59 109,-40 202,-92 279,-158 76,-66 159,-172 248,-319zm2 -607c-38,-156 -95,-279 -170,-372 -75,-92 -173,-167 -296,-223 -122,-57 -251,-86 -386,-86 -223,0 -414,71 -575,214 -117,104 -205,259 -265,467l1692 0zm1993 -656l-186 192c-156,-150 -308,-225 -456,-225 -94,0 -175,31 -242,94 -68,61 -102,134 -102,217 0,73 28,143 83,209 55,68 172,147 349,239 216,111 363,219 440,323 76,105 114,223 114,354 0,186 -65,342 -195,471 -130,128 -293,193 -489,193 -130,0 -254,-28 -373,-85 -119,-57 -216,-135 -294,-235l182 -207c149,167 307,251 473,251 116,0 215,-38 298,-112 81,-75 122,-163 122,-263 0,-83 -27,-157 -81,-222 -54,-64 -176,-144 -366,-240 -204,-105 -343,-208 -416,-310 -73,-102 -110,-219 -110,-350 0,-170 58,-312 175,-426 118,-112 266,-169 445,-169 209,0 418,100 629,301zm516 -246l289 0 0 416c114,-158 246,-276 396,-354 149,-78 316,-117 500,-117 321,0 595,116 823,346 228,230 342,508 342,832 0,331 -113,612 -339,844 -226,230 -499,346 -818,346 -180,0 -345,-38 -496,-112 -150,-75 -286,-186 -408,-334l0 1215 -289 0 0 -3082zm1164 226c-252,0 -463,87 -634,262 -173,175 -258,392 -258,652 0,171 38,325 114,461 77,137 187,244 329,324 143,80 294,120 452,120 156,0 303,-40 440,-121 138,-80 247,-193 328,-337 82,-145 122,-296 122,-454 0,-161 -40,-312 -121,-455 -81,-143 -189,-255 -326,-333 -136,-80 -285,-119 -446,-119zm2802 -281c348,0 637,126 866,377 208,229 312,500 312,813 0,315 -110,590 -330,825 -220,235 -503,353 -848,353 -347,0 -631,-118 -851,-353 -220,-235 -330,-510 -330,-825 0,-311 104,-582 312,-811 229,-253 519,-379 869,-379zm-2 285c-241,0 -448,89 -622,266 -173,178 -260,394 -260,646 0,162 40,314 119,455 79,140 186,248 321,325 134,76 282,115 442,115 161,0 309,-39 443,-115 135,-77 242,-185 321,-325 79,-141 119,-293 119,-455 0,-252 -88,-468 -262,-646 -173,-177 -380,-266 -621,-266zm1715 -230l289 0 0 405c117,-154 246,-270 387,-346 142,-76 295,-114 462,-114 169,0 319,43 450,128 132,86 229,202 291,347 62,144 94,370 94,677l0 1161 -290 0 0 -1076c0,-259 -11,-433 -33,-520 -35,-149 -101,-261 -196,-336 -96,-75 -220,-113 -374,-113 -177,0 -335,58 -473,174 -140,116 -232,260 -276,431 -28,112 -42,316 -42,613l0 827 -289 0 0 -2258zm3732 246l-187 192c-155,-150 -308,-225 -456,-225 -94,0 -175,31 -242,94 -67,61 -102,134 -102,217 0,73 28,143 83,209 56,68 173,147 350,239 215,111 362,219 440,323 75,105 114,223 114,354 0,186 -65,342 -196,471 -130,128 -293,193 -489,193 -130,0 -254,-28 -373,-85 -118,-57 -216,-135 -294,-235l183 -207c148,167 306,251 472,251 116,0 216,-38 298,-112 81,-75 122,-163 122,-263 0,-83 -26,-157 -80,-222 -55,-64 -177,-144 -367,-240 -204,-105 -343,-208 -416,-310 -73,-102 -110,-219 -110,-350 0,-170 59,-312 176,-426 117,-112 265,-169 445,-169 208,0 418,100 629,301zm612 -1172c66,0 122,23 169,71 46,46 70,104 70,170 0,65 -24,121 -70,168 -47,48 -103,71 -169,71 -65,0 -121,-23 -167,-71 -47,-47 -70,-103 -70,-168 0,-66 23,-124 70,-170 46,-48 102,-71 167,-71zm-144 926l289 0 0 2258 -289 0 0 -2258zm681 0l304 0 760 1648 755 -1648 311 0 -1033 2258 -56 0 -1041 -2258zm4474 1509l245 129c-81,157 -173,284 -279,380 -105,96 -224,170 -355,220 -133,50 -282,75 -448,75 -370,0 -658,-120 -867,-361 -208,-241 -312,-513 -312,-817 0,-285 88,-540 265,-763 223,-284 523,-427 897,-427 387,0 695,146 926,437 163,206 247,462 250,770l-2041 0c6,262 90,476 253,642 162,168 364,251 602,251 116,0 229,-20 338,-59 109,-40 202,-92 278,-158 77,-66 160,-172 248,-319zm3 -607c-39,-156 -96,-279 -170,-372 -75,-92 -174,-167 -296,-223 -123,-57 -252,-86 -386,-86 -224,0 -415,71 -575,214 -118,104 -205,259 -266,467l1693 0zm1173 897c70,0 130,24 180,74 50,50 75,111 75,183 0,71 -25,131 -75,181 -50,50 -110,76 -180,76 -71,0 -131,-26 -181,-76 -50,-50 -75,-110 -75,-181 0,-72 25,-133 75,-183 50,-50 110,-74 181,-74z"/>
   </g>
  </g>
 </g>
</svg>
