<?xml version="1.0" encoding="UTF-8"?>
<!DOCTYPE svg PUBLIC "-//W3C//DTD SVG 1.1//EN" "http://www.w3.org/Graphics/SVG/1.1/DTD/svg11.dtd">
<!-- Creator: CorelDRAW X7 -->
<svg xmlns="http://www.w3.org/2000/svg" xml:space="preserve" width="512px" height="63px" version="1.1" style="shape-rendering:geometricPrecision; text-rendering:geometricPrecision; image-rendering:optimizeQuality; fill-rule:evenodd; clip-rule:evenodd"
viewBox="0 0 51200 6300"
 xmlns:xlink="http://www.w3.org/1999/xlink">
 <defs>
  <style type="text/css">
   <![CDATA[
    .fil0 {fill:#F7F5E6}
    .fil1 {fill:#F7F5E6;fill-rule:nonzero}
   ]]>
  </style>
 </defs>
 <g id="Layer_x0020_1">
  <metadata id="CorelCorpID_0Corel-Layer"/>
  <g id="_441789856">
   <g>
    <path class="fil0" d="M8797 2315l0 1615c0,183 -150,334 -334,334l0 0c-183,0 -333,-151 -333,-334l0 -1615c0,-184 150,-334 333,-334l0 0c184,0 334,150 334,334z"/>
    <path class="fil0" d="M9670 2832l0 580c0,184 -150,334 -333,334l0 0c-184,0 -334,-150 -334,-334l0 -580c0,-183 150,-333 334,-333l0 0c183,0 333,150 333,333z"/>
    <path class="fil0" d="M882 3983l0 -1615c0,-184 150,-334 334,-334l0 0c183,0 333,150 333,334l0 1615c0,183 -150,333 -333,333l0 0c-184,0 -334,-150 -334,-333z"/>
    <path class="fil0" d="M9 3477l0 -604c0,-183 150,-333 333,-333l0 0c184,0 334,150 334,333l0 604c0,184 -150,334 -334,334l0 0c-183,0 -333,-150 -333,-334z"/>
    <path class="fil0" d="M3029 663c1074,-783 2541,-783 3616,0l-798 798c-620,-372 -1401,-372 -2020,0l-798 -798zm4295 679c783,1074 783,2541 0,3616l-798 -798c371,-620 371,-1400 0,-2020l798 -798zm-679 4295c-1075,783 -2542,783 -3616,0l797 -798c621,371 1401,371 2021,0l798 798zm-4295 -679c-783,-1074 -783,-2542 0,-3616l798 798c-372,620 -372,1400 -1,2020l-797 798z"/>
    <path class="fil0" d="M5219 2482l878 507 0 0c30,18 56,43 75,75 56,98 23,223 -75,280l-879 507 -861 497c-33,24 -74,38 -119,38 -113,0 -205,-92 -205,-206l0 -1014 1 -1014c0,-34 9,-69 27,-102 56,-98 181,-131 279,-75l868 501c4,2 7,4 11,6z"/>
   </g>
   <g>
    <path class="fil1" d="M12528 102l476 0 600 1799 604 -1799 474 0 432 2579 -473 0 -275 -1629 -546 1629 -434 0 -543 -1629 -281 1629 -479 0 445 -2579zm3935 672l485 0 0 917c0,178 13,302 37,371 25,70 64,124 119,163 54,38 122,57 202,57 79,0 147,-19 203,-57 56,-38 97,-93 124,-167 20,-55 30,-172 30,-352l0 -932 478 0 0 806c0,333 -27,561 -79,683 -64,150 -160,264 -285,345 -125,79 -284,119 -477,119 -209,0 -378,-46 -507,-140 -130,-93 -221,-223 -273,-390 -38,-116 -57,-326 -57,-630l0 -793zm4328 270l-296 297c-119,-120 -228,-180 -327,-180 -53,0 -95,12 -125,35 -31,22 -46,51 -46,84 0,26 10,49 29,71 19,21 67,51 143,88l175 88c184,90 311,183 380,277 69,94 103,204 103,331 0,169 -62,310 -187,423 -124,113 -291,169 -501,169 -278,0 -500,-108 -666,-325l295 -321c56,65 122,118 198,158 76,41 143,61 201,61 63,0 115,-15 153,-46 39,-30 58,-65 58,-104 0,-74 -69,-146 -209,-215l-161 -81c-309,-155 -463,-349 -463,-582 0,-150 58,-279 174,-385 116,-107 264,-160 445,-160 124,0 240,27 350,82 109,54 201,133 277,235zm1608 -1053c83,0 155,30 215,91 61,60 91,133 91,219 0,85 -30,158 -90,218 -59,60 -130,89 -213,89 -85,0 -158,-30 -218,-91 -60,-61 -90,-135 -90,-223 0,-84 30,-155 89,-214 59,-59 131,-89 216,-89zm-240 783l477 0 0 1907 -477 0 0 -1907zm3783 387l-398 220c-75,-79 -148,-133 -221,-163 -73,-31 -159,-46 -257,-46 -179,0 -324,54 -434,160 -111,106 -166,242 -166,408 0,162 53,294 159,396 107,102 246,153 419,153 214,0 380,-73 500,-219l377 259c-205,265 -494,398 -867,398 -335,0 -598,-99 -788,-297 -190,-198 -285,-430 -285,-696 0,-184 46,-353 138,-508 93,-155 222,-278 388,-366 165,-89 350,-133 555,-133 189,0 359,38 510,113 151,75 274,183 370,321zm2244 -1059l1426 0 0 485 -471 0 0 2094 -499 0 0 -2094 -456 0 0 -485zm4620 1760l-1536 0c23,136 82,244 178,325 95,80 218,120 367,120 178,0 330,-63 459,-188l401 189c-100,143 -221,248 -360,317 -140,68 -306,102 -498,102 -298,0 -541,-94 -729,-282 -187,-188 -281,-424 -281,-707 0,-290 94,-532 281,-723 188,-192 422,-288 706,-288 299,0 544,96 732,287 188,191 281,443 281,757l-1 91zm-476 -374c-32,-104 -94,-189 -187,-254 -93,-65 -201,-98 -324,-98 -134,0 -251,37 -352,111 -63,45 -121,126 -175,241l1038 0zm1867 -714l478 0 0 222c82,-90 173,-158 274,-202 99,-45 209,-67 328,-67 119,0 227,29 323,88 96,59 173,145 232,257 76,-112 169,-198 280,-257 111,-59 232,-88 363,-88 136,0 256,32 359,95 104,62 177,145 223,246 44,102 67,267 67,496l0 1117 -477 0 0 -964c0,-215 -27,-362 -82,-438 -54,-76 -136,-114 -245,-114 -83,0 -157,23 -222,70 -66,46 -115,111 -147,193 -32,82 -48,214 -48,396l0 857 -477 0 0 -920c0,-170 -13,-294 -39,-370 -25,-76 -63,-133 -114,-170 -50,-37 -112,-56 -184,-56 -80,0 -153,23 -218,71 -66,47 -115,113 -148,198 -32,85 -48,219 -48,401l0 846 -478 0 0 -1907zm4862 0l0 209c87,-85 180,-149 280,-192 101,-43 209,-64 323,-64 249,0 460,94 634,281 174,188 261,429 261,723 0,283 -90,520 -270,710 -180,191 -393,286 -639,286 -110,0 -212,-19 -307,-58 -94,-39 -188,-103 -282,-192l0 900 -477 0 0 -2603 477 0zm502 391c-150,0 -275,52 -374,154 -99,103 -149,237 -149,403 0,169 50,306 149,410 99,105 224,157 374,157 146,0 269,-53 369,-159 100,-107 149,-242 149,-406 0,-164 -49,-298 -147,-402 -98,-105 -221,-157 -371,-157zm2346 -1128l478 0 0 2644 -478 0 0 -2644zm3328 737l477 0 0 1907 -477 0 0 -203c-94,88 -188,152 -282,191 -94,39 -196,58 -306,58 -247,0 -460,-95 -640,-286 -180,-190 -270,-427 -270,-710 0,-294 87,-535 262,-723 174,-187 385,-281 634,-281 115,0 222,21 323,64 100,43 193,107 279,192l0 -209zm-504 391c-148,0 -272,52 -369,157 -98,104 -147,238 -147,402 0,164 49,299 149,406 100,106 223,159 369,159 150,0 275,-52 374,-157 99,-104 149,-241 149,-410 0,-166 -50,-300 -149,-403 -99,-102 -224,-154 -376,-154zm2526 -1095l477 0 0 704 284 0 0 413 -284 0 0 1494 -477 0 0 -1494 -245 0 0 -413 245 0 0 -704zm3933 1792l-1536 0c22,136 82,244 177,325 96,80 219,120 367,120 179,0 331,-63 460,-188l401 189c-100,143 -221,248 -360,317 -140,68 -306,102 -498,102 -298,0 -541,-94 -729,-282 -187,-188 -281,-424 -281,-707 0,-290 94,-532 281,-723 188,-192 422,-288 706,-288 299,0 544,96 731,287 188,191 282,443 282,757l-1 91zm-476 -374c-32,-104 -94,-189 -187,-254 -93,-65 -201,-98 -324,-98 -134,0 -251,37 -352,111 -63,45 -121,126 -175,241l1038 0z"/>
    <path class="fil1" d="M15233 5584l129 -78c92,169 197,253 317,253 51,0 99,-12 144,-36 45,-24 80,-56 103,-96 24,-40 35,-82 35,-127 0,-51 -17,-101 -52,-150 -47,-68 -135,-150 -262,-245 -127,-96 -207,-166 -238,-209 -54,-71 -81,-149 -81,-233 0,-66 16,-127 48,-181 32,-55 77,-97 135,-129 58,-32 121,-47 189,-47 72,0 140,18 202,53 63,36 129,101 200,196l-125 95c-58,-76 -107,-126 -148,-150 -40,-25 -85,-37 -133,-37 -61,0 -112,19 -151,56 -40,37 -60,83 -60,138 0,33 8,65 21,96 14,32 40,65 76,102 20,19 86,70 198,152 133,98 224,185 273,260 49,77 74,153 74,230 0,110 -42,207 -126,288 -84,82 -187,123 -307,123 -93,0 -177,-25 -252,-75 -76,-49 -146,-133 -209,-249zm1242 -1306c33,0 61,12 84,36 24,23 35,52 35,85 0,32 -11,61 -35,84 -23,24 -51,35 -84,35 -32,0 -60,-11 -83,-35 -24,-23 -36,-52 -36,-84 0,-33 12,-62 36,-85 23,-24 51,-36 83,-36zm-72 463l145 0 0 1128 -145 0 0 -1128zm447 0l144 0 0 195c51,-71 102,-124 156,-157 73,-44 150,-65 231,-65 55,0 107,10 156,32 49,21 89,50 120,85 31,36 58,87 81,154 49,-89 109,-156 181,-202 73,-46 151,-69 234,-69 78,0 147,20 207,59 60,39 104,94 133,164 29,71 43,176 43,317l0 615 -148 0 0 -615c0,-121 -9,-204 -26,-249 -17,-46 -47,-82 -89,-110 -41,-27 -91,-41 -149,-41 -70,0 -135,21 -193,62 -58,42 -101,97 -127,166 -27,69 -41,184 -41,346l0 441 -144 0 0 -577c0,-136 -9,-228 -26,-277 -17,-49 -46,-88 -88,-117 -43,-30 -93,-44 -151,-44 -67,0 -130,20 -188,60 -59,41 -102,95 -130,164 -28,68 -42,173 -42,314l0 477 -144 0 0 -1128zm1994 0l145 0 0 208c57,-79 123,-138 198,-177 75,-39 158,-58 250,-58 160,0 297,57 411,172 114,116 171,254 171,416 0,166 -56,306 -169,422 -113,115 -250,173 -409,173 -90,0 -172,-19 -248,-56 -75,-38 -143,-93 -204,-167l0 607 -145 0 0 -1540zm582 113c-126,0 -231,43 -317,131 -86,87 -129,196 -129,326 0,85 20,162 58,230 38,69 93,122 164,162 72,40 147,60 226,60 78,0 151,-20 220,-60 69,-40 123,-97 164,-169 41,-72 61,-148 61,-227 0,-80 -20,-156 -61,-227 -40,-72 -94,-127 -163,-167 -68,-39 -142,-59 -223,-59zm844 -548l145 0 0 1563 -145 0 0 -1563zm1399 1189l123 65c-41,78 -87,142 -140,190 -53,47 -112,84 -177,109 -67,26 -141,38 -224,38 -185,0 -329,-60 -433,-181 -104,-120 -156,-256 -156,-408 0,-142 44,-270 132,-381 111,-142 261,-213 449,-213 193,0 347,73 462,218 82,103 123,231 125,385l-1020 0c3,131 45,238 126,321 82,83 182,125 302,125 57,0 114,-10 168,-30 55,-19 101,-46 139,-79 39,-32 80,-85 124,-159zm2 -303c-20,-78 -48,-139 -85,-186 -38,-46 -87,-83 -148,-112 -62,-28 -126,-42 -193,-42 -112,0 -207,35 -287,106 -59,52 -103,130 -133,234l846 0zm586 448c35,0 65,12 90,37 25,25 37,55 37,91 0,36 -12,66 -37,91 -25,25 -55,38 -90,38 -35,0 -66,-13 -91,-38 -25,-25 -37,-55 -37,-91 0,-36 12,-66 37,-91 25,-25 56,-37 91,-37zm1040 -1296l153 0 0 1377 588 0 0 148 -741 0 0 -1525zm1008 -66c33,0 61,12 84,36 24,23 36,52 36,85 0,32 -12,61 -36,84 -23,24 -51,35 -84,35 -32,0 -60,-11 -83,-35 -24,-23 -35,-52 -35,-84 0,-33 11,-62 35,-85 23,-24 51,-36 83,-36zm-72 463l145 0 0 1128 -145 0 0 -1128zm1422 0l144 0 0 898c0,158 -13,274 -41,347 -38,104 -104,183 -198,239 -94,56 -207,84 -338,84 -97,0 -184,-14 -261,-41 -77,-28 -140,-64 -188,-111 -48,-46 -93,-114 -133,-203l157 0c42,75 98,131 166,167 67,36 152,54 252,54 99,0 183,-18 250,-55 69,-36 117,-82 146,-138 29,-55 44,-145 44,-269l0 -58c-55,69 -121,122 -201,159 -78,37 -162,55 -250,55 -104,0 -202,-25 -293,-77 -91,-51 -162,-121 -212,-207 -50,-87 -74,-183 -74,-287 0,-105 26,-202 77,-292 52,-90 124,-161 216,-214 91,-52 188,-78 290,-78 84,0 163,17 236,51 73,35 143,92 211,172l0 -196zm-429 113c-82,0 -158,20 -229,59 -70,40 -126,95 -166,165 -40,70 -60,146 -60,228 0,123 42,225 124,306 83,81 191,121 323,121 133,0 240,-40 322,-120 81,-80 121,-185 121,-316 0,-85 -18,-160 -56,-227 -37,-67 -90,-119 -158,-158 -69,-39 -142,-58 -221,-58zm883 -548l145 0 0 639c58,-77 124,-135 194,-174 71,-38 147,-57 230,-57 84,0 160,21 225,64 66,43 114,100 145,172 31,72 47,185 47,339l0 580 -145 0 0 -537c0,-130 -5,-216 -15,-260 -18,-74 -51,-130 -99,-168 -47,-38 -109,-57 -186,-57 -89,0 -168,30 -237,88 -70,57 -116,129 -138,215 -14,55 -21,157 -21,306l0 413 -145 0 0 -1563zm1421 15l144 0 0 420 230 0 0 126 -230 0 0 1002 -144 0 0 -1002 -197 0 0 -126 197 0 0 -420zm442 420l149 0 344 818 361 -818 27 0 360 818 352 -818 149 0 -488 1128 -28 0 -359 -807 -359 807 -29 0 -479 -1128zm2870 754l123 65c-41,78 -87,142 -140,190 -52,47 -112,84 -177,109 -67,26 -141,38 -224,38 -185,0 -329,-60 -433,-181 -104,-120 -156,-256 -156,-408 0,-142 44,-270 132,-381 112,-142 261,-213 449,-213 193,0 347,73 462,218 82,103 124,231 125,385l-1020 0c3,131 45,238 126,321 82,83 182,125 302,125 57,0 114,-10 168,-30 55,-19 101,-46 139,-79 39,-32 80,-85 124,-159zm2 -303c-20,-78 -48,-139 -85,-186 -38,-46 -87,-83 -148,-112 -61,-28 -126,-42 -193,-42 -112,0 -207,35 -287,106 -59,52 -103,130 -133,234l846 0zm477 -914c33,0 61,12 84,36 24,23 35,52 35,85 0,32 -11,61 -35,84 -23,24 -51,35 -84,35 -33,0 -60,-11 -83,-35 -24,-23 -36,-52 -36,-84 0,-33 12,-62 36,-85 23,-24 50,-36 83,-36zm-72 463l145 0 0 1128 -145 0 0 -1128zm1422 0l144 0 0 898c0,158 -14,274 -41,347 -38,104 -104,183 -198,239 -94,56 -207,84 -339,84 -96,0 -183,-14 -260,-41 -77,-28 -140,-64 -188,-111 -48,-46 -93,-114 -134,-203l157 0c43,75 99,131 167,167 67,36 151,54 252,54 99,0 182,-18 250,-55 69,-36 117,-82 146,-138 29,-55 44,-145 44,-269l0 -58c-55,69 -122,122 -201,159 -78,37 -162,55 -251,55 -103,0 -201,-25 -292,-77 -91,-51 -162,-121 -212,-207 -50,-87 -75,-183 -75,-287 0,-105 26,-202 78,-292 52,-90 124,-161 216,-214 91,-52 188,-78 290,-78 84,0 163,17 236,51 73,35 143,92 211,172l0 -196zm-429 113c-82,0 -159,20 -229,59 -71,40 -126,95 -166,165 -40,70 -60,146 -60,228 0,123 41,225 124,306 83,81 191,121 322,121 134,0 241,-40 322,-120 81,-80 122,-185 122,-316 0,-85 -19,-160 -56,-227 -37,-67 -90,-119 -158,-158 -69,-39 -142,-58 -221,-58zm883 -548l145 0 0 639c58,-77 123,-135 194,-174 71,-38 147,-57 230,-57 84,0 159,21 225,64 65,43 114,100 145,172 31,72 47,185 47,339l0 580 -145 0 0 -537c0,-130 -5,-216 -15,-260 -18,-74 -51,-130 -99,-168 -47,-38 -109,-57 -187,-57 -88,0 -167,30 -237,88 -69,57 -115,129 -138,215 -13,55 -20,157 -20,306l0 413 -145 0 0 -1563zm1421 15l144 0 0 420 230 0 0 126 -230 0 0 1002 -144 0 0 -1002 -198 0 0 -126 198 0 0 -420zm754 1319c35,0 65,12 90,37 25,25 37,55 37,91 0,36 -12,66 -37,91 -25,25 -55,38 -90,38 -35,0 -65,-13 -91,-38 -24,-25 -37,-55 -37,-91 0,-36 13,-66 37,-91 26,-25 56,-37 91,-37zm1048 -1296l305 0c170,0 285,7 345,21 91,21 164,65 221,133 57,68 86,152 86,251 0,83 -20,156 -59,219 -39,63 -95,110 -168,143 -73,32 -173,48 -301,49l549 709 -188 0 -549 -709 -88 0 0 709 -153 0 0 -1525zm153 149l0 518 264 2c102,0 178,-9 227,-29 48,-19 87,-50 114,-93 27,-42 41,-89 41,-142 0,-51 -14,-98 -41,-140 -28,-42 -65,-71 -110,-89 -45,-18 -120,-27 -225,-27l-270 0zm2058 1002l122 65c-40,78 -87,142 -139,190 -53,47 -112,84 -178,109 -66,26 -141,38 -224,38 -185,0 -329,-60 -433,-181 -104,-120 -156,-256 -156,-408 0,-142 44,-270 132,-381 112,-142 262,-213 449,-213 193,0 347,73 462,218 82,103 124,231 125,385l-1019 0c2,131 45,238 126,321 81,83 182,125 301,125 58,0 114,-10 168,-30 55,-19 101,-46 140,-79 38,-32 79,-85 124,-159zm1 -303c-19,-78 -48,-139 -85,-186 -38,-46 -87,-83 -148,-112 -61,-28 -126,-42 -193,-42 -111,0 -207,35 -287,106 -59,52 -103,130 -133,234l846 0zm996 -328l-93 96c-78,-75 -154,-113 -228,-113 -47,0 -88,16 -121,47 -34,31 -51,67 -51,109 0,36 14,72 42,104 27,34 86,74 174,120 108,55 181,109 220,161 38,53 57,112 57,177 0,93 -33,171 -98,236 -65,64 -146,96 -244,96 -65,0 -127,-14 -187,-42 -59,-29 -108,-68 -147,-118l92 -103c74,83 153,125 236,125 58,0 108,-19 149,-56 40,-37 61,-81 61,-131 0,-42 -14,-79 -41,-111 -27,-32 -88,-72 -182,-120 -103,-53 -172,-104 -208,-155 -37,-51 -56,-109 -56,-175 0,-85 30,-156 88,-213 59,-56 133,-84 223,-84 104,0 208,50 314,150zm257 -123l145 0 0 208c57,-79 123,-138 198,-177 74,-39 158,-58 250,-58 160,0 297,57 411,172 114,116 171,254 171,416 0,166 -56,306 -169,422 -113,115 -250,173 -409,173 -90,0 -172,-19 -248,-56 -75,-38 -143,-93 -204,-167l0 607 -145 0 0 -1540zm582 113c-126,0 -231,43 -317,131 -86,87 -129,196 -129,326 0,85 20,162 58,230 38,69 93,122 164,162 72,40 147,60 226,60 78,0 151,-20 220,-60 68,-40 123,-97 164,-169 41,-72 61,-148 61,-227 0,-80 -20,-156 -61,-227 -40,-72 -94,-127 -163,-167 -68,-39 -142,-59 -223,-59zm1400 -140c174,0 319,62 433,188 104,114 156,250 156,406 0,158 -55,295 -165,413 -110,117 -251,176 -424,176 -173,0 -315,-59 -425,-176 -110,-118 -165,-255 -165,-413 0,-155 52,-291 156,-405 115,-126 260,-189 434,-189zm0 142c-121,0 -224,44 -311,133 -87,89 -130,197 -130,323 0,81 20,157 59,227 40,70 93,124 161,163 66,38 140,57 221,57 80,0 154,-19 221,-57 67,-39 121,-93 160,-163 40,-70 60,-146 60,-227 0,-126 -44,-234 -131,-323 -87,-89 -190,-133 -310,-133zm857 -115l144 0 0 203c59,-78 123,-135 193,-173 71,-38 148,-57 231,-57 85,0 160,21 225,64 66,43 114,100 146,173 31,72 46,185 46,338l0 580 -144 0 0 -537c0,-130 -6,-216 -17,-260 -17,-74 -50,-130 -98,-168 -48,-38 -110,-57 -187,-57 -88,0 -167,30 -236,88 -70,57 -116,129 -138,215 -14,56 -21,158 -21,306l0 413 -144 0 0 -1128zm1864 123l-93 96c-78,-75 -154,-113 -228,-113 -47,0 -87,16 -121,47 -33,31 -50,67 -50,109 0,36 13,72 41,104 28,34 86,74 175,120 107,55 181,109 219,161 38,53 57,112 57,177 0,93 -32,171 -97,236 -65,64 -147,96 -244,96 -66,0 -128,-14 -187,-42 -59,-29 -108,-68 -147,-118l91 -103c74,83 153,125 237,125 58,0 107,-19 148,-56 41,-37 61,-81 61,-131 0,-42 -13,-79 -40,-111 -27,-32 -88,-72 -183,-120 -102,-53 -171,-104 -208,-155 -37,-51 -55,-109 -55,-175 0,-85 29,-156 88,-213 58,-56 133,-84 222,-84 104,0 209,50 314,150zm306 -586c33,0 61,12 85,36 23,23 35,52 35,85 0,32 -12,61 -35,84 -24,24 -52,35 -85,35 -32,0 -60,-11 -83,-35 -24,-23 -35,-52 -35,-84 0,-33 11,-62 35,-85 23,-24 51,-36 83,-36zm-71 463l144 0 0 1128 -144 0 0 -1128zm340 0l152 0 380 824 377 -824 155 0 -516 1128 -28 0 -520 -1128zm2236 754l122 65c-40,78 -86,142 -139,190 -53,47 -112,84 -178,109 -66,26 -141,38 -224,38 -185,0 -329,-60 -433,-181 -104,-120 -156,-256 -156,-408 0,-142 44,-270 132,-381 112,-142 262,-213 449,-213 193,0 347,73 463,218 81,103 123,231 125,385l-1020 0c3,131 45,238 126,321 81,83 182,125 301,125 58,0 114,-10 169,-30 54,-19 101,-46 139,-79 38,-32 80,-85 124,-159zm1 -303c-19,-78 -48,-139 -85,-186 -37,-46 -87,-83 -148,-112 -61,-28 -125,-42 -193,-42 -111,0 -207,35 -287,106 -59,52 -103,130 -133,234l846 0zm586 448c36,0 65,12 90,37 25,25 38,55 38,91 0,36 -13,66 -38,91 -25,25 -54,38 -90,38 -35,0 -65,-13 -90,-38 -25,-25 -37,-55 -37,-91 0,-36 12,-66 37,-91 25,-25 55,-37 90,-37z"/>
   </g>
  </g>
 </g>
</svg>
