<?xml version="1.0" encoding="UTF-8"?>
<!DOCTYPE svg PUBLIC "-//W3C//DTD SVG 1.1//EN" "http://www.w3.org/Graphics/SVG/1.1/DTD/svg11.dtd">
<!-- Creator: CorelDRAW X7 -->
<svg xmlns="http://www.w3.org/2000/svg" xml:space="preserve" width="144px" height="144px" version="1.1" style="shape-rendering:geometricPrecision; text-rendering:geometricPrecision; image-rendering:optimizeQuality; fill-rule:evenodd; clip-rule:evenodd"
viewBox="0 0 14400 14400"
 xmlns:xlink="http://www.w3.org/1999/xlink">
 <defs>
  <style type="text/css">
   <![CDATA[
    .fil0 {fill:#333A56}
    .fil1 {fill:#52658F}
    .fil2 {fill:url(#id0);fill-rule:nonzero}
   ]]>
  </style>
  <linearGradient id="id0" gradientUnits="userSpaceOnUse" x1="14428" y1="7394.29" x2="-27.9926" y2="7005.71">
   <stop offset="0" style="stop-opacity:1; stop-color:#75199C"/>
   <stop offset="1" style="stop-opacity:1; stop-color:#333A56"/>
  </linearGradient>
 </defs>
 <g id="Layer_x0020_1">
  <metadata id="CorelCorpID_0Corel-Layer"/>
  <g id="_439489320">
   <path class="fil0" d="M7177 3782c1888,0 3418,1531 3418,3418 0,1887 -1530,3418 -3418,3418 -1887,0 -3418,-1531 -3418,-3418 0,-1887 1531,-3418 3418,-3418zm0 1377c1127,0 2041,914 2041,2041 0,1127 -914,2041 -2041,2041 -1127,0 -2041,-914 -2041,-2041 0,-1127 914,-2041 2041,-2041z"/>
   <path class="fil0" d="M12548 6848l0 645c0,204 -167,371 -371,371l0 0c-204,0 -371,-167 -371,-371l0 -645c0,-204 167,-371 371,-371l0 0c204,0 371,167 371,371z"/>
   <path class="fil0" d="M2778 8127l0 -1795c0,-204 167,-371 371,-371l0 0c204,0 371,167 371,371l0 1795c0,204 -167,371 -371,371l0 0c-204,0 -371,-167 -371,-371z"/>
   <path class="fil0" d="M1807 7565l0 -671c0,-204 167,-371 371,-371l0 0c204,0 371,167 371,371l0 671c0,204 -167,371 -371,371l0 0c-204,0 -371,-167 -371,-371z"/>
   <path class="fil0" d="M11577 6273l0 1795c0,204 -167,371 -371,371l0 0c-204,0 -371,-167 -371,-371l0 -1795c0,-204 167,-371 371,-371l0 0c204,0 371,167 371,371z"/>
   <path class="fil1" d="M7612 6456l964 556 -1 0c33,19 62,47 82,83 62,107 25,244 -82,306l-963 556 -945 545c-37,26 -82,42 -130,42 -125,0 -225,-101 -225,-226l0 -1112 1 -1112c0,-38 9,-76 29,-111 62,-108 199,-145 307,-83l951 549c4,2 8,5 12,7z"/>
   <path class="fil2" d="M6204 1495l-4709 4709 0 0c-270,270 -405,627 -405,984l-3 0c0,357 136,714 407,985l1 0 0 0 4732 4732c271,270 628,405 985,405 358,0 716,-134 984,-403l0 -2 4709 -4709 0 0 1 1c270,-270 404,-627 404,-985 0,-357 -135,-714 -405,-985l0 0 -4732 -4732 0 0c-272,-272 -629,-408 -985,-408l0 3c-358,0 -715,134 -985,404l1 1 0 0zm-5471 3947l4709 -4709 0 0 2 0c481,-480 1113,-721 1744,-721l0 3c634,0 1267,239 1746,718l0 0 4733 4733 0 0c480,481 721,1113 721,1746 0,631 -241,1263 -721,1744l0 2 0 0 -4709 4709 -1 -2c-482,482 -1115,723 -1745,723 -633,0 -1266,-241 -1746,-721l-4733 -4733 0 0 0 -2c-479,-479 -718,-1112 -718,-1744l-3 0c0,-632 241,-1265 721,-1746l0 0z"/>
  </g>
 </g>
</svg>
