<?xml version="1.0" encoding="UTF-8"?>
<!DOCTYPE svg PUBLIC "-//W3C//DTD SVG 1.1//EN" "http://www.w3.org/Graphics/SVG/1.1/DTD/svg11.dtd">
<!-- Creator: CorelDRAW X7 -->
<svg xmlns="http://www.w3.org/2000/svg" xml:space="preserve" width="256px" height="256px" version="1.1" style="shape-rendering:geometricPrecision; text-rendering:geometricPrecision; image-rendering:optimizeQuality; fill-rule:evenodd; clip-rule:evenodd"
viewBox="0 0 25600 25600"
 xmlns:xlink="http://www.w3.org/1999/xlink">
 <defs>
  <style type="text/css">
   <![CDATA[
    .fil0 {fill:#333A56}
    .fil1 {fill:#52658F}
    .fil2 {fill:url(#id0);fill-rule:nonzero}
   ]]>
  </style>
  <linearGradient id="id0" gradientUnits="userSpaceOnUse" x1="25684.3" y1="13146.4" x2="-84.331" y2="12453.6">
   <stop offset="0" style="stop-opacity:1; stop-color:#75199C"/>
   <stop offset="1" style="stop-opacity:1; stop-color:#333A56"/>
  </linearGradient>
 </defs>
 <g id="Layer_x0020_1">
  <metadata id="CorelCorpID_0Corel-Layer"/>
  <g id="_253512696">
   <path class="fil0" d="M12759 6708c3365,0 6093,2728 6093,6092 0,3365 -2728,6092 -6093,6092 -3364,0 -6092,-2727 -6092,-6092 0,-3364 2728,-6092 6092,-6092zm0 2454c2010,0 3638,1629 3638,3638 0,2009 -1628,3638 -3638,3638 -2009,0 -3638,-1629 -3638,-3638 0,-2009 1629,-3638 3638,-3638z"/>
   <path class="fil0" d="M22332 12172l0 1151c0,363 -297,661 -661,661l0 0c-363,0 -661,-298 -661,-661l0 -1151c0,-363 298,-661 661,-661l0 0c364,0 661,298 661,661z"/>
   <path class="fil0" d="M4917 14453l0 -3201c0,-364 298,-661 661,-661l0 0c364,0 661,297 661,661l0 3201c0,364 -297,661 -661,661l0 0c-363,0 -661,-297 -661,-661z"/>
   <path class="fil0" d="M3186 13451l0 -1197c0,-364 298,-661 661,-661l0 0c364,0 662,297 662,661l0 1197c0,364 -298,661 -662,661l0 0c-363,0 -661,-297 -661,-661z"/>
   <path class="fil0" d="M20602 11147l0 3201c0,364 -298,661 -661,661l0 0c-364,0 -662,-297 -662,-661l0 -3201c0,-364 298,-661 662,-661l0 0c363,0 661,297 661,661z"/>
   <path class="fil1" d="M13535 11474l1717 991 0 1c58,34 109,83 146,146 110,192 44,436 -148,546l-1716 991 -1684 972c-65,47 -145,74 -232,74 -222,0 -402,-180 -402,-401l0 -1983 2 -1982c0,-67 17,-136 53,-199 110,-191 355,-257 546,-147l1696 979c7,3 15,7 22,12z"/>
   <path class="fil2" d="M11024 2630l-8394 8394 0 0c-481,482 -722,1118 -722,1755l-4 0c0,636 242,1273 724,1756l2 -1 0 0 8436 8436c482,481 1118,722 1755,722 639,0 1276,-240 1755,-719l0 -3 8394 -8394 0 0 2 1c480,-481 720,-1118 720,-1756 0,-637 -241,-1273 -722,-1755l0 0 -8436 -8436 0 0c-485,-484 -1121,-726 -1755,-726l0 4c-638,0 -1275,240 -1756,720l1 2 0 0zm-9751 7037l8394 -8394 0 0 4 0c856,-857 1983,-1285 3108,-1285l0 3c1129,0 2258,428 3112,1282l0 0 8436 8436 0 0c857,857 1285,1985 1285,3112 0,1125 -428,2252 -1285,3108l0 4 0 0 -8394 8394 -2 -2c-859,858 -1986,1287 -3110,1287 -1127,0 -2255,-428 -3112,-1285l-8436 -8436 0 0 0 -4c-854,-854 -1282,-1981 -1282,-3108l-3 0c0,-1127 428,-2255 1285,-3112l0 0z"/>
  </g>
 </g>
</svg>
