<?xml version="1.0" encoding="UTF-8"?>
<!DOCTYPE svg PUBLIC "-//W3C//DTD SVG 1.1//EN" "http://www.w3.org/Graphics/SVG/1.1/DTD/svg11.dtd">
<!-- Creator: CorelDRAW X7 -->
<svg xmlns="http://www.w3.org/2000/svg" xml:space="preserve" width="512px" height="512px" version="1.1" style="shape-rendering:geometricPrecision; text-rendering:geometricPrecision; image-rendering:optimizeQuality; fill-rule:evenodd; clip-rule:evenodd"
viewBox="0 0 51200 51200"
 xmlns:xlink="http://www.w3.org/1999/xlink">
 <defs>
  <style type="text/css">
   <![CDATA[
    .fil0 {fill:#333A56}
    .fil1 {fill:#52658F}
    .fil2 {fill:url(#id0);fill-rule:nonzero}
   ]]>
  </style>
  <linearGradient id="id0" gradientUnits="userSpaceOnUse" x1="51357.7" y1="26292.5" x2="-157.678" y2="24907.5">
   <stop offset="0" style="stop-opacity:1; stop-color:#75199C"/>
   <stop offset="1" style="stop-opacity:1; stop-color:#333A56"/>
  </linearGradient>
 </defs>
 <g id="Layer_x0020_1">
  <metadata id="CorelCorpID_0Corel-Layer"/>
  <g id="_439502928">
   <path class="fil0" d="M25519 13420c6726,0 12179,5454 12179,12180 0,6726 -5453,12180 -12179,12180 -6727,0 -12180,-5454 -12180,-12180 0,-6726 5453,-12180 12180,-12180zm0 4907c4017,0 7273,3256 7273,7273 0,4017 -3256,7273 -7273,7273 -4017,0 -7274,-3256 -7274,-7273 0,-4017 3257,-7273 7274,-7273z"/>
   <path class="fil0" d="M44657 24346l0 2299c0,727 -595,1321 -1322,1321l0 0c-727,0 -1322,-594 -1322,-1321l0 -2299c0,-727 595,-1322 1322,-1322l0 0c727,0 1322,595 1322,1322z"/>
   <path class="fil0" d="M9841 28904l0 -6399c0,-727 595,-1322 1321,-1322l1 0c727,0 1321,595 1321,1322l0 6399c0,727 -594,1322 -1321,1322l-1 0c-726,0 -1321,-595 -1321,-1322z"/>
   <path class="fil0" d="M6381 26901l0 -2393c0,-727 595,-1321 1322,-1321l0 0c727,0 1321,594 1321,1321l0 2393c0,727 -594,1322 -1321,1322l0 0c-727,0 -1322,-595 -1322,-1322z"/>
   <path class="fil0" d="M41197 22296l0 6399c0,727 -595,1322 -1322,1322l0 0c-727,0 -1322,-595 -1322,-1322l0 -6399c0,-727 595,-1322 1322,-1322l0 0c727,0 1322,595 1322,1322z"/>
   <path class="fil1" d="M27070 22949l3432 1981 -1 1c118,68 220,167 292,294 220,382 88,871 -294,1091l-3432 1981 -3365 1943c-131,93 -292,148 -465,148 -444,0 -803,-359 -803,-802l0 -3963 3 -3963c0,-135 35,-272 107,-398 220,-383 708,-515 1091,-295l3390 1958c15,7 30,15 45,24z"/>
   <path class="fil2" d="M22050 5269l-16780 16781 -1 0c-962,963 -1444,2235 -1444,3508l-8 0c0,1271 484,2544 1449,3511l3 -4 1 1 16864 16864c963,963 2235,1445 3508,1445 1278,0 2551,-479 3508,-1437l0 -8 16781 -16780 0 0 4 3c959,-962 1440,-2235 1440,-3511 0,-1273 -482,-2545 -1444,-3507l-1 -1 -16864 -16864 -1 -1c-967,-967 -2239,-1452 -3507,-1452l0 8c-1276,0 -2549,481 -3511,1440l3 4 0 0zm-19494 14067l16780 -16781 1 0 7 0c1713,-1712 3965,-2569 6214,-2569l0 8c2258,0 4514,855 6221,2561l1 1 16864 16864 1 1c1712,1712 2569,3968 2569,6221 0,2249 -857,4501 -2569,6214l0 7 0 1 -16781 16780 -4 -4c-1717,1716 -3971,2574 -6218,2574 -2253,0 -4509,-857 -6222,-2570l-16864 -16864 -1 -1 0 -7c-1707,-1708 -2561,-3961 -2561,-6214l-8 0c0,-2253 857,-4509 2569,-6222l1 0z"/>
  </g>
 </g>
</svg>
