<?xml version="1.0" encoding="UTF-8"?>
<!DOCTYPE svg PUBLIC "-//W3C//DTD SVG 1.1//EN" "http://www.w3.org/Graphics/SVG/1.1/DTD/svg11.dtd">
<!-- Creator: CorelDRAW X7 -->
<svg xmlns="http://www.w3.org/2000/svg" xml:space="preserve" width="72px" height="72px" version="1.1" style="shape-rendering:geometricPrecision; text-rendering:geometricPrecision; image-rendering:optimizeQuality; fill-rule:evenodd; clip-rule:evenodd"
viewBox="0 0 7200 7200"
 xmlns:xlink="http://www.w3.org/1999/xlink">
 <defs>
  <style type="text/css">
   <![CDATA[
    .fil0 {fill:#F7F5E6}
    .fil1 {fill:#F7F5E6;fill-rule:nonzero}
   ]]>
  </style>
 </defs>
 <g id="Layer_x0020_1">
  <metadata id="CorelCorpID_0Corel-Layer"/>
  <g id="_249665776">
   <path class="fil0" d="M3589 1891c943,0 1708,765 1708,1709 0,944 -765,1709 -1708,1709 -944,0 -1709,-765 -1709,-1709 0,-944 765,-1709 1709,-1709zm0 689c563,0 1020,456 1020,1020 0,564 -457,1020 -1020,1020 -564,0 -1021,-456 -1021,-1020 0,-564 457,-1020 1021,-1020z"/>
   <path class="fil0" d="M6274 3424l0 323c0,102 -84,185 -186,185l0 0c-102,0 -185,-83 -185,-185l0 -323c0,-102 83,-185 185,-185l0 0c102,0 186,83 186,185z"/>
   <path class="fil0" d="M1389 4064l0 -898c0,-102 83,-186 185,-186l0 0c102,0 186,84 186,186l0 898c0,102 -84,185 -186,185l0 0c-102,0 -185,-83 -185,-185z"/>
   <path class="fil0" d="M904 3783l0 -336c0,-102 83,-186 185,-186l0 0c102,0 185,84 185,186l0 336c0,102 -83,185 -185,185l0 0c-102,0 -185,-83 -185,-185z"/>
   <path class="fil0" d="M5788 3136l0 898c0,102 -83,186 -185,186l0 0c-102,0 -186,-84 -186,-186l0 -898c0,-102 84,-185 186,-185l0 0c102,0 185,83 185,185z"/>
   <path class="fil0" d="M3806 3228l482 278 0 0c16,10 30,24 41,41 30,54 12,123 -42,153l-481 278 -472 273c-19,13 -41,21 -66,21 -62,0 -112,-51 -112,-113l0 -556 0 -556c0,-19 5,-38 15,-56 31,-53 100,-72 153,-41l476 275c2,1 4,2 6,3z"/>
   <path class="fil1" d="M3102 748l-2354 2354 0 0c-135,135 -203,314 -203,492l-1 0c0,178 68,357 203,493l1 -1 0 0 2366 2366c135,135 313,203 492,203 179,0 358,-67 492,-202l0 -1 2354 -2354 0 0 1 1c135,-135 202,-314 202,-493 0,-179 -68,-357 -203,-492l0 0 -2366 -2366 0 0c-136,-136 -314,-204 -492,-204l0 1c-179,0 -358,67 -493,202l1 1 0 0zm-2735 1973l2354 -2354 0 0 1 0c241,-240 557,-361 872,-361l0 1c317,0 633,120 873,360l0 0 2366 2366 0 0c240,240 361,557 361,873 0,315 -121,631 -361,872l0 1 0 0 -2354 2354 -1 0c-241,240 -557,361 -872,361 -316,0 -633,-121 -873,-361l-2366 -2366 0 0 0 -1c-240,-240 -360,-556 -360,-872l-1 0c0,-316 121,-633 361,-873l0 0z"/>
  </g>
 </g>
</svg>
