<?xml version="1.0" encoding="UTF-8"?>
<!DOCTYPE svg PUBLIC "-//W3C//DTD SVG 1.1//EN" "http://www.w3.org/Graphics/SVG/1.1/DTD/svg11.dtd">
<!-- Creator: CorelDRAW X7 -->
<svg xmlns="http://www.w3.org/2000/svg" xml:space="preserve" width="96px" height="96px" version="1.1" style="shape-rendering:geometricPrecision; text-rendering:geometricPrecision; image-rendering:optimizeQuality; fill-rule:evenodd; clip-rule:evenodd"
viewBox="0 0 9600 9600"
 xmlns:xlink="http://www.w3.org/1999/xlink">
 <defs>
  <style type="text/css">
   <![CDATA[
    .fil0 {fill:#333A56}
    .fil1 {fill:#52658F}
    .fil2 {fill:url(#id0);fill-rule:nonzero}
   ]]>
  </style>
  <linearGradient id="id0" gradientUnits="userSpaceOnUse" x1="9618.66" y1="4929.57" x2="-18.6619" y2="4670.43">
   <stop offset="0" style="stop-opacity:1; stop-color:#75199C"/>
   <stop offset="1" style="stop-opacity:1; stop-color:#333A56"/>
  </linearGradient>
 </defs>
 <g id="Layer_x0020_1">
  <metadata id="CorelCorpID_0Corel-Layer"/>
  <g id="_440276848">
   <path class="fil0" d="M4785 2521c1258,0 2278,1021 2278,2279 0,1258 -1020,2279 -2278,2279 -1258,0 -2279,-1021 -2279,-2279 0,-1258 1021,-2279 2279,-2279zm0 918c751,0 1360,610 1360,1361 0,751 -609,1361 -1360,1361 -752,0 -1361,-610 -1361,-1361 0,-751 609,-1361 1361,-1361z"/>
   <path class="fil0" d="M8365 4565l0 430c0,136 -111,248 -247,248l0 0c-136,0 -248,-112 -248,-248l0 -430c0,-136 112,-247 248,-247l0 0c136,0 247,111 247,247z"/>
   <path class="fil0" d="M1852 5418l0 -1197c0,-136 111,-247 247,-247l0 0c136,0 247,111 247,247l0 1197c0,136 -111,247 -247,247l0 0c-136,0 -247,-111 -247,-247z"/>
   <path class="fil0" d="M1205 5043l0 -447c0,-136 111,-247 247,-247l0 0c136,0 247,111 247,247l0 447c0,136 -111,248 -247,248l0 0c-136,0 -247,-112 -247,-248z"/>
   <path class="fil0" d="M7718 4182l0 1197c0,136 -112,247 -247,247l0 0c-137,0 -248,-111 -248,-247l0 -1197c0,-136 111,-247 248,-247l0 0c135,0 247,111 247,247z"/>
   <path class="fil1" d="M5075 4304l642 371 0 0c22,13 41,31 55,55 41,71 16,163 -56,204l-642 371 -629 363c-25,17 -55,28 -87,28 -83,0 -150,-67 -150,-150l0 -742 0 -741c0,-25 7,-51 20,-75 41,-71 133,-96 204,-55l635 367c2,1 5,2 8,4z"/>
   <path class="fil2" d="M4136 997l-3139 3139 0 0c-180,180 -271,418 -271,656l-1 0c0,238 90,476 271,657l1 -1 0 0 3155 3155c180,180 418,271 656,271 239,0 477,-90 656,-269l0 -2 3139 -3139 0 0 1 1c180,-180 270,-418 270,-657 0,-238 -91,-476 -271,-656l0 0 -3155 -3155 0 0c-181,-181 -419,-272 -656,-272l0 1c-239,0 -477,90 -657,270l1 1 0 0zm-3647 2631l3139 -3139 0 0 2 0c320,-320 741,-481 1162,-481l0 2c423,0 845,160 1164,479l0 0 3155 3155 0 0c320,320 481,742 481,1164 0,421 -161,842 -481,1162l0 2 0 0 -3139 3139 -1 -1c-321,321 -743,482 -1163,482 -422,0 -844,-161 -1164,-481l-3155 -3155 0 0 0 -1c-320,-320 -479,-741 -479,-1163l-2 0c0,-421 161,-843 481,-1164l0 0z"/>
  </g>
 </g>
</svg>
