<?xml version="1.0" encoding="UTF-8"?>
<!DOCTYPE svg PUBLIC "-//W3C//DTD SVG 1.1//EN" "http://www.w3.org/Graphics/SVG/1.1/DTD/svg11.dtd">
<!-- Creator: CorelDRAW X7 -->
<svg xmlns="http://www.w3.org/2000/svg" xml:space="preserve" width="1024px" height="176px" version="1.1" style="shape-rendering:geometricPrecision; text-rendering:geometricPrecision; image-rendering:optimizeQuality; fill-rule:evenodd; clip-rule:evenodd"
viewBox="0 0 102400 17600"
 xmlns:xlink="http://www.w3.org/1999/xlink">
 <defs>
  <style type="text/css">
   <![CDATA[
    .fil0 {fill:#F7F5E6}
    .fil1 {fill:#F7F5E6;fill-rule:nonzero}
   ]]>
  </style>
 </defs>
 <g id="Layer_x0020_1">
  <metadata id="CorelCorpID_0Corel-Layer"/>
  <g id="_243642984">
   <g>
    <path class="fil0" d="M8767 4623c2307,0 4177,1870 4177,4177 0,2307 -1870,4177 -4177,4177 -2307,0 -4177,-1870 -4177,-4177 0,-2307 1870,-4177 4177,-4177zm0 1683c1377,0 2494,1116 2494,2494 0,1377 -1117,2494 -2494,2494 -1378,0 -2494,-1117 -2494,-2494 0,-1378 1116,-2494 2494,-2494z"/>
    <path class="fil0" d="M15330 8370l0 788c0,249 -204,453 -453,453l0 0c-249,0 -453,-204 -453,-453l0 -788c0,-250 204,-454 453,-454l0 0c249,0 453,204 453,454z"/>
    <path class="fil0" d="M3390 9933l0 -2194c0,-250 204,-454 453,-454l1 0c249,0 453,204 453,454l0 2194c0,249 -204,453 -453,453l-1 0c-249,0 -453,-204 -453,-453z"/>
    <path class="fil0" d="M2204 9246l0 -820c0,-250 204,-454 453,-454l0 0c249,0 453,204 453,454l0 820c0,249 -204,453 -453,453l0 0c-249,0 -453,-204 -453,-453z"/>
    <path class="fil0" d="M14144 7667l0 2194c0,249 -204,454 -454,454l0 0c-249,0 -453,-205 -453,-454l0 -2194c0,-250 204,-454 453,-454l0 0c250,0 454,204 454,454z"/>
    <path class="fil0" d="M9299 7891l1177 679 0 1c40,23 75,57 100,100 75,131 30,299 -101,374l-1177 680 -1154 666c-45,32 -100,51 -160,51 -152,0 -275,-123 -275,-275l0 -1359 1 -1359c0,-47 12,-94 37,-137 75,-131 243,-176 374,-101l1162 671c6,3 11,6 16,9z"/>
    <path class="fil1" d="M7577 1828l-5754 5754 -1 0c-330,331 -495,767 -495,1204l-3 0c0,435 166,872 497,1204l1 -2 1 0 5783 5784c330,330 766,496 1203,496 438,0 875,-165 1203,-493l0 -3 5755 -5755 0 0 1 1c329,-330 494,-766 494,-1204 0,-436 -165,-872 -495,-1203l0 0 -5784 -5783 0 0c-332,-332 -768,-498 -1203,-498l0 2c-437,0 -874,165 -1204,494l1 2 0 0zm-6685 4824l5755 -5755 0 0 2 0c588,-587 1360,-881 2131,-881l0 2c775,1 1549,294 2134,879l0 0 5784 5784 0 0c587,587 881,1361 881,2133 0,772 -294,1544 -881,2131l0 3 0 0 -5755 5755 -1 -1c-589,588 -1362,882 -2133,882 -773,0 -1546,-294 -2134,-881l-5783 -5784 0 0 0 -3c-586,-585 -879,-1358 -879,-2130l-2 0c0,-773 293,-1547 881,-2134l0 0z"/>
   </g>
   <g>
    <path class="fil1" d="M24319 2646l961 0 1212 3632 1218 -3632 959 0 872 5206 -956 0 -556 -3288 -1102 3288 -875 0 -1097 -3288 -567 3288 -967 0 898 -5206zm7947 1356l979 0 0 1851c0,361 25,611 75,751 49,140 129,249 239,327 110,78 246,117 407,117 161,0 299,-39 411,-115 112,-76 196,-189 250,-337 40,-112 61,-349 61,-711l0 -1883 964 0 0 1629c0,672 -53,1131 -159,1379 -130,302 -322,533 -575,695 -252,161 -574,242 -963,242 -423,0 -764,-95 -1025,-283 -261,-189 -444,-451 -551,-788 -76,-233 -113,-658 -113,-1273l0 -1601zm8738 545l-597 601c-242,-242 -462,-363 -660,-363 -108,0 -192,23 -254,69 -62,46 -92,103 -92,170 0,52 20,99 58,143 39,43 136,103 289,179l353 176c372,183 629,370 768,560 139,191 207,413 207,669 0,341 -125,626 -377,854 -251,228 -588,342 -1011,342 -561,0 -1011,-219 -1345,-658l595 -648c114,132 247,240 400,321 153,81 288,122 406,122 127,0 231,-30 309,-92 78,-62 117,-132 117,-212 0,-148 -140,-293 -422,-433l-325 -164c-624,-313 -935,-704 -935,-1174 0,-304 117,-564 351,-779 235,-215 534,-323 899,-323 251,0 485,56 706,166 220,110 406,268 560,474zm3246 -2126c169,0 314,62 435,184 122,122 183,269 183,443 0,172 -61,318 -180,439 -120,121 -264,181 -432,181 -171,0 -318,-62 -438,-185 -122,-123 -183,-273 -183,-449 0,-170 61,-313 180,-433 120,-120 265,-180 435,-180zm-484 1581l964 0 0 3850 -964 0 0 -3850zm7639 783l-803 442c-152,-158 -300,-267 -448,-328 -147,-62 -320,-92 -518,-92 -362,0 -654,107 -876,321 -224,215 -335,490 -335,826 0,326 107,592 321,799 215,206 497,309 846,309 432,0 768,-147 1010,-442l760 522c-414,536 -996,805 -1749,805 -678,0 -1209,-201 -1592,-601 -383,-400 -575,-868 -575,-1404 0,-373 93,-715 279,-1028 187,-313 447,-559 782,-738 334,-179 707,-269 1120,-269 384,0 727,77 1031,229 305,152 554,369 747,649zm4531 -2139l2879 0 0 979 -950 0 0 4227 -1008 0 0 -4227 -921 0 0 -979zm9328 3553l-3100 0c45,274 165,493 358,656 193,162 441,243 741,243 360,0 668,-127 927,-380l810 383c-202,287 -445,500 -727,639 -282,138 -617,207 -1005,207 -602,0 -1093,-190 -1471,-571 -378,-379 -568,-855 -568,-1427 0,-586 190,-1073 568,-1460 378,-388 852,-582 1424,-582 605,0 1098,194 1478,579 379,387 569,896 569,1531l-4 182zm-960 -754c-65,-210 -190,-382 -377,-514 -189,-132 -407,-197 -656,-197 -269,0 -505,74 -709,223 -127,91 -245,255 -354,488l2096 0zm3770 -1443l965 0 0 449c166,-182 349,-319 552,-408 202,-91 423,-136 663,-136 240,0 459,60 652,178 195,119 351,293 469,520 154,-227 342,-401 566,-520 223,-118 469,-178 733,-178 275,0 517,65 724,191 210,127 358,294 450,498 91,206 137,539 137,1001l0 2255 -965 0 0 -1945c0,-436 -54,-730 -164,-884 -110,-153 -276,-231 -495,-231 -168,0 -317,47 -449,142 -133,93 -232,223 -296,389 -64,165 -97,431 -97,799l0 1730 -964 0 0 -1857c0,-343 -26,-592 -78,-746 -51,-155 -128,-268 -229,-344 -103,-75 -228,-113 -373,-113 -162,0 -309,47 -441,143 -133,95 -231,228 -297,400 -65,172 -98,442 -98,811l0 1706 -965 0 0 -3850zm9818 0l0 423c174,-172 363,-302 566,-388 203,-86 420,-130 651,-130 502,0 928,190 1280,569 352,379 527,865 527,1458 0,572 -181,1051 -545,1435 -363,386 -793,578 -1291,578 -221,0 -428,-40 -619,-119 -191,-78 -380,-208 -569,-388l0 1819 -964 0 0 -5257 964 0zm1013 790c-304,0 -556,104 -756,311 -200,208 -300,478 -300,813 0,342 100,619 300,829 200,212 452,317 756,317 295,0 543,-108 744,-321 202,-216 303,-489 303,-821 0,-330 -99,-601 -298,-811 -197,-212 -447,-317 -749,-317zm4738 -2277l964 0 0 5337 -964 0 0 -5337zm6718 1487l965 0 0 3850 -965 0 0 -409c-188,179 -378,307 -568,385 -189,79 -396,119 -617,119 -499,0 -930,-192 -1294,-578 -363,-384 -545,-863 -545,-1435 0,-593 177,-1079 529,-1458 351,-379 778,-569 1281,-569 232,0 448,44 651,130 203,86 391,216 563,388l0 -423zm-1016 790c-300,0 -549,105 -746,317 -198,210 -297,481 -297,811 0,332 100,605 302,821 202,213 450,321 745,321 303,0 556,-105 755,-317 201,-210 301,-487 301,-829 0,-335 -100,-605 -301,-813 -199,-207 -453,-311 -759,-311zm5099 -2212l965 0 0 1422 572 0 0 834 -572 0 0 3016 -965 0 0 -3016 -493 0 0 -834 493 0 0 -1422zm7942 3619l-3100 0c45,274 164,493 358,656 193,162 441,243 740,243 361,0 669,-127 927,-380l810 383c-202,287 -445,500 -726,639 -283,138 -618,207 -1006,207 -602,0 -1092,-190 -1471,-571 -378,-379 -568,-855 -568,-1427 0,-586 190,-1073 568,-1460 379,-388 852,-582 1424,-582 606,0 1099,194 1478,579 380,387 569,896 569,1531l-3 182zm-961 -754c-64,-210 -190,-382 -377,-514 -189,-132 -406,-197 -655,-197 -270,0 -505,74 -710,223 -127,91 -245,255 -354,488l2096 0z"/>
    <path class="fil1" d="M29780 13715l262 -158c184,341 397,511 639,511 104,0 201,-24 292,-72 90,-48 160,-113 207,-194 48,-81 71,-167 71,-258 0,-102 -35,-203 -105,-303 -96,-136 -272,-301 -529,-494 -257,-194 -417,-334 -480,-421 -110,-145 -164,-302 -164,-471 0,-134 32,-256 97,-366 64,-110 155,-197 272,-260 117,-64 244,-95 381,-95 146,0 282,35 409,108 126,71 261,203 403,396l-252 191c-117,-154 -216,-256 -298,-304 -82,-50 -172,-74 -268,-74 -126,0 -228,38 -307,113 -80,76 -120,168 -120,279 0,66 15,131 43,194 27,63 79,131 153,206 40,38 174,141 400,307 267,197 451,372 550,526 100,153 150,308 150,463 0,223 -85,417 -255,582 -170,165 -376,247 -619,247 -188,0 -358,-50 -510,-150 -152,-100 -293,-268 -422,-503zm2509 -2637c66,0 123,24 170,71 47,48 71,105 71,172 0,66 -24,123 -71,170 -47,48 -104,72 -170,72 -66,0 -122,-24 -169,-72 -47,-47 -71,-104 -71,-170 0,-67 24,-124 71,-172 47,-47 103,-71 169,-71zm-145 935l291 0 0 2278 -291 0 0 -2278zm901 0l292 0 0 394c102,-145 206,-252 314,-319 148,-87 304,-131 467,-131 111,0 215,22 315,65 99,43 180,101 243,173 63,72 117,175 164,309 97,-178 219,-314 365,-407 147,-93 304,-140 473,-140 157,0 296,40 416,120 121,79 211,190 269,332 59,142 88,355 88,640l0 1242 -300 0 0 -1243c0,-244 -17,-411 -52,-503 -35,-92 -95,-165 -179,-221 -84,-56 -185,-84 -302,-84 -141,0 -271,43 -389,126 -118,84 -203,195 -258,335 -54,139 -81,372 -81,698l0 892 -292 0 0 -1166c0,-274 -17,-461 -51,-559 -35,-99 -94,-178 -179,-237 -86,-59 -187,-89 -304,-89 -136,0 -262,41 -380,123 -118,81 -206,191 -262,329 -57,138 -85,350 -85,634l0 965 -292 0 0 -2278zm4028 0l292 0 0 419c116,-159 249,-278 399,-357 151,-78 319,-118 505,-118 324,0 601,117 831,349 230,233 345,513 345,840 0,334 -114,617 -342,851 -228,233 -503,350 -826,350 -181,0 -347,-38 -500,-113 -152,-76 -289,-188 -412,-338l0 1227 -292 0 0 -3110zm1175 227c-254,0 -467,88 -640,265 -174,177 -260,396 -260,658 0,173 38,328 116,465 77,138 188,247 331,328 145,80 297,120 456,120 158,0 306,-40 444,-122 139,-81 249,-194 331,-340 83,-146 123,-299 123,-458 0,-162 -40,-315 -122,-459 -81,-145 -191,-257 -329,-337 -137,-80 -288,-120 -450,-120zm1704 -1106l292 0 0 3157 -292 0 0 -3157zm2825 2402l247 130c-81,158 -175,286 -281,383 -107,97 -226,171 -359,222 -134,51 -284,76 -452,76 -373,0 -664,-122 -874,-365 -211,-243 -316,-518 -316,-824 0,-288 90,-545 268,-770 225,-287 527,-431 905,-431 390,0 702,148 934,441 165,208 250,467 253,778l-2059 0c5,263 90,479 254,647 164,169 368,253 608,253 117,0 231,-20 341,-60 110,-40 204,-93 281,-159 77,-67 161,-173 250,-321zm3 -614c-39,-156 -97,-281 -172,-374 -76,-94 -175,-169 -299,-226 -123,-57 -253,-86 -389,-86 -225,0 -419,72 -580,215 -119,105 -207,262 -268,471l1708 0zm1183 906c71,0 132,25 182,75 50,50 75,111 75,184 0,72 -25,132 -75,183 -50,51 -111,77 -182,77 -71,0 -132,-26 -182,-77 -50,-51 -75,-111 -75,-183 0,-73 25,-134 75,-184 50,-50 111,-75 182,-75zm2100 -2617l309 0 0 2780 1189 0 0 300 -1498 0 0 -3080zm2037 -133c66,0 123,24 170,71 47,48 71,105 71,172 0,66 -24,123 -71,170 -47,48 -104,72 -170,72 -66,0 -122,-24 -169,-72 -47,-47 -71,-104 -71,-170 0,-67 24,-124 71,-172 47,-47 103,-71 169,-71zm-146 935l292 0 0 2278 -292 0 0 -2278zm2871 0l292 0 0 1813c0,319 -28,553 -84,701 -77,209 -209,369 -400,482 -189,113 -417,170 -683,170 -195,0 -370,-28 -526,-83 -155,-56 -282,-130 -380,-224 -97,-93 -187,-230 -270,-410l318 0c86,152 198,264 335,337 137,73 307,110 509,110 200,0 369,-38 506,-111 138,-75 236,-168 295,-279 59,-112 88,-293 88,-544l0 -117c-110,139 -245,246 -405,321 -158,75 -328,112 -507,112 -209,0 -406,-52 -590,-156 -185,-104 -327,-244 -428,-419 -100,-176 -151,-369 -151,-579 0,-211 53,-407 158,-589 104,-182 249,-326 434,-432 186,-106 381,-159 586,-159 170,0 330,35 477,105 147,69 289,185 426,347l0 -396zm-866 227c-166,0 -320,40 -462,120 -143,81 -254,191 -335,333 -81,142 -122,295 -122,460 0,249 84,455 251,619 168,163 385,244 651,244 270,0 486,-80 650,-242 164,-162 246,-375 246,-638 0,-172 -38,-325 -113,-459 -75,-135 -182,-241 -320,-319 -138,-78 -287,-118 -446,-118zm1783 -1106l292 0 0 1290c119,-156 250,-273 392,-350 143,-78 298,-117 465,-117 170,0 322,43 454,130 132,86 230,203 293,348 63,146 95,374 95,685l0 1171 -292 0 0 -1085c0,-262 -11,-437 -32,-525 -36,-150 -102,-263 -198,-340 -96,-76 -222,-113 -378,-113 -178,0 -337,58 -478,175 -141,117 -234,262 -279,435 -28,112 -42,318 -42,619l0 834 -292 0 0 -3157zm2869 30l292 0 0 849 463 0 0 253 -463 0 0 2025 -292 0 0 -2025 -399 0 0 -253 399 0 0 -849zm892 849l302 0 695 1652 727 -1652 55 0 728 1652 709 -1652 301 0 -984 2278 -57 0 -724 -1630 -726 1630 -59 0 -967 -2278zm5797 1523l247 130c-81,158 -175,286 -282,383 -106,97 -226,171 -359,222 -133,51 -283,76 -451,76 -374,0 -665,-122 -875,-365 -210,-243 -315,-518 -315,-824 0,-288 89,-545 267,-770 226,-287 528,-431 906,-431 390,0 701,148 934,441 165,208 249,467 252,778l-2059 0c6,263 91,479 255,647 164,169 367,253 608,253 117,0 230,-20 340,-60 111,-40 204,-93 281,-159 78,-67 161,-173 251,-321zm2 -614c-39,-156 -96,-281 -171,-374 -76,-94 -175,-169 -299,-226 -124,-57 -254,-86 -390,-86 -225,0 -418,72 -579,215 -119,105 -208,262 -269,471l1708 0zm964 -1844c67,0 123,24 170,71 48,48 71,105 71,172 0,66 -23,123 -71,170 -47,48 -103,72 -170,72 -66,0 -121,-24 -169,-72 -47,-47 -70,-104 -70,-170 0,-67 23,-124 70,-172 48,-47 103,-71 169,-71zm-145 935l292 0 0 2278 -292 0 0 -2278zm2871 0l291 0 0 1813c0,319 -28,553 -83,701 -77,209 -210,369 -400,482 -190,113 -418,170 -683,170 -196,0 -371,-28 -527,-83 -155,-56 -281,-130 -379,-224 -98,-93 -188,-230 -270,-410l318 0c86,152 198,264 335,337 136,73 307,110 509,110 200,0 369,-38 506,-111 138,-75 236,-168 295,-279 58,-112 88,-293 88,-544l0 -117c-111,139 -246,246 -405,321 -159,75 -328,112 -507,112 -209,0 -406,-52 -591,-156 -184,-104 -326,-244 -427,-419 -101,-176 -151,-369 -151,-579 0,-211 52,-407 157,-589 105,-182 250,-326 435,-432 185,-106 380,-159 586,-159 170,0 329,35 476,105 148,69 290,185 427,347l0 -396zm-866 227c-166,0 -321,40 -463,120 -142,81 -254,191 -334,333 -81,142 -122,295 -122,460 0,249 84,455 251,619 167,163 385,244 651,244 269,0 486,-80 649,-242 164,-162 246,-375 246,-638 0,-172 -37,-325 -113,-459 -75,-135 -182,-241 -320,-319 -138,-78 -287,-118 -445,-118zm1783 -1106l292 0 0 1290c118,-156 250,-273 392,-350 143,-78 297,-117 464,-117 171,0 323,43 455,130 132,86 230,203 293,348 63,146 94,374 94,685l0 1171 -291 0 0 -1085c0,-262 -11,-437 -32,-525 -36,-150 -103,-263 -199,-340 -95,-76 -221,-113 -377,-113 -178,0 -338,58 -478,175 -141,117 -234,262 -279,435 -28,112 -42,318 -42,619l0 834 -292 0 0 -3157zm2869 30l292 0 0 849 463 0 0 253 -463 0 0 2025 -292 0 0 -2025 -399 0 0 -253 399 0 0 -849zm1522 2664c72,0 132,25 182,75 50,50 75,111 75,184 0,72 -25,132 -75,183 -50,51 -110,77 -182,77 -71,0 -131,-26 -182,-77 -50,-51 -75,-111 -75,-183 0,-73 25,-134 75,-184 51,-50 111,-75 182,-75zm2118 -2617l615 0c342,0 574,14 696,42 184,42 332,131 447,269 115,137 172,307 172,508 0,167 -39,314 -119,441 -78,127 -191,223 -338,288 -147,65 -350,98 -609,99l1109 1433 -378 0 -1109 -1433 -177 0 0 1433 -309 0 0 -3080zm309 300l0 1047 532 4c206,0 358,-19 457,-58 99,-40 176,-102 232,-188 55,-86 83,-181 83,-288 0,-103 -28,-197 -85,-282 -55,-84 -129,-144 -221,-181 -90,-36 -242,-54 -454,-54l-544 0zm4153 2025l248 130c-82,158 -175,286 -282,383 -106,97 -226,171 -359,222 -134,51 -284,76 -452,76 -373,0 -664,-122 -874,-365 -210,-243 -315,-518 -315,-824 0,-288 89,-545 267,-770 225,-287 528,-431 906,-431 390,0 701,148 934,441 165,208 249,467 252,778l-2059 0c6,263 91,479 254,647 165,169 368,253 609,253 116,0 230,-20 340,-60 110,-40 204,-93 281,-159 77,-67 161,-173 250,-321zm3 -614c-39,-156 -96,-281 -171,-374 -76,-94 -175,-169 -299,-226 -124,-57 -254,-86 -390,-86 -225,0 -418,72 -580,215 -118,105 -207,262 -268,471l1708 0zm2011 -662l-188 195c-157,-152 -311,-227 -460,-227 -95,0 -177,31 -245,94 -68,62 -102,136 -102,219 0,74 28,145 84,211 56,69 174,149 352,241 218,113 366,222 444,326 77,106 115,225 115,358 0,187 -65,345 -197,475 -132,130 -296,195 -493,195 -132,0 -257,-29 -377,-86 -119,-57 -218,-136 -297,-237l185 -209c149,168 309,253 477,253 117,0 217,-38 300,-113 82,-75 124,-164 124,-265 0,-84 -28,-158 -82,-224 -55,-64 -178,-145 -370,-242 -206,-106 -346,-211 -419,-314 -75,-103 -112,-220 -112,-352 0,-172 60,-315 177,-430 119,-113 269,-171 450,-171 210,0 421,101 634,303zm520 -247l292 0 0 419c116,-159 249,-278 399,-357 151,-78 319,-118 505,-118 324,0 601,117 831,349 230,233 345,513 345,840 0,334 -114,617 -342,851 -228,233 -503,350 -826,350 -181,0 -347,-38 -500,-113 -152,-76 -289,-188 -412,-338l0 1227 -292 0 0 -3110zm1175 227c-254,0 -467,88 -640,265 -174,177 -260,396 -260,658 0,173 38,328 116,465 77,138 188,247 331,328 145,80 297,120 456,120 158,0 306,-40 444,-122 139,-81 249,-194 331,-340 83,-146 123,-299 123,-458 0,-162 -40,-315 -122,-459 -81,-145 -191,-257 -329,-337 -137,-80 -288,-120 -450,-120zm2827 -283c352,0 643,127 874,381 210,231 315,504 315,820 0,318 -110,595 -333,833 -221,237 -507,356 -856,356 -350,0 -637,-119 -858,-356 -223,-238 -333,-515 -333,-833 0,-314 105,-587 315,-818 231,-255 523,-383 876,-383zm-1 288c-244,0 -453,89 -628,269 -175,179 -262,396 -262,651 0,164 40,317 119,459 80,141 188,251 324,328 135,77 285,116 447,116 162,0 312,-39 447,-116 136,-77 244,-187 324,-328 79,-142 119,-295 119,-459 0,-255 -88,-472 -264,-651 -175,-180 -384,-269 -626,-269zm1730 -232l292 0 0 408c118,-156 248,-272 390,-349 143,-76 298,-115 466,-115 171,0 323,43 455,130 132,86 230,203 293,349 63,146 95,374 95,684l0 1171 -292 0 0 -1085c0,-262 -12,-437 -34,-525 -36,-150 -101,-263 -198,-340 -96,-76 -222,-113 -377,-113 -178,0 -338,58 -478,175 -141,117 -234,262 -278,435 -28,113 -42,319 -42,619l0 834 -292 0 0 -2278zm3766 247l-189 195c-156,-152 -310,-227 -460,-227 -95,0 -176,31 -244,94 -68,62 -102,136 -102,219 0,74 28,145 83,211 56,69 174,149 353,241 217,113 365,222 444,326 76,106 115,225 115,358 0,187 -66,345 -198,475 -131,130 -295,195 -493,195 -131,0 -257,-29 -377,-86 -119,-57 -218,-136 -296,-237l184 -209c150,168 309,253 477,253 117,0 217,-38 300,-113 83,-75 124,-164 124,-265 0,-84 -27,-158 -81,-224 -56,-64 -178,-145 -370,-242 -206,-106 -346,-211 -420,-314 -74,-103 -111,-220 -111,-352 0,-172 59,-315 177,-430 119,-113 268,-171 449,-171 210,0 422,101 635,303zm618 -1182c66,0 123,24 170,71 47,48 71,105 71,172 0,66 -24,123 -71,170 -47,48 -104,72 -170,72 -66,0 -122,-24 -169,-72 -47,-47 -71,-104 -71,-170 0,-67 24,-124 71,-172 47,-47 103,-71 169,-71zm-146 935l292 0 0 2278 -292 0 0 -2278zm687 0l307 0 767 1663 762 -1663 314 0 -1043 2278 -56 0 -1051 -2278zm4515 1523l248 130c-82,158 -175,286 -282,383 -106,97 -226,171 -359,222 -134,51 -284,76 -452,76 -373,0 -664,-122 -874,-365 -210,-243 -315,-518 -315,-824 0,-288 89,-545 267,-770 225,-287 528,-431 906,-431 389,0 701,148 934,441 165,208 249,467 252,778l-2059 0c6,263 91,479 254,647 165,169 368,253 609,253 116,0 230,-20 340,-60 110,-40 204,-93 281,-159 77,-67 161,-173 250,-321zm3 -614c-39,-156 -96,-281 -171,-374 -76,-94 -175,-169 -299,-226 -124,-57 -254,-86 -390,-86 -225,0 -418,72 -580,215 -118,105 -207,262 -268,471l1708 0zm1183 906c72,0 132,25 183,75 50,50 75,111 75,184 0,72 -25,132 -75,183 -51,51 -111,77 -183,77 -70,0 -131,-26 -182,-77 -50,-51 -75,-111 -75,-183 0,-73 25,-134 75,-184 51,-50 112,-75 182,-75z"/>
   </g>
  </g>
 </g>
</svg>
