<?xml version="1.0" encoding="UTF-8"?>
<!DOCTYPE svg PUBLIC "-//W3C//DTD SVG 1.1//EN" "http://www.w3.org/Graphics/SVG/1.1/DTD/svg11.dtd">
<!-- Creator: CorelDRAW X7 -->
<svg xmlns="http://www.w3.org/2000/svg" xml:space="preserve" width="512px" height="88px" version="1.1" style="shape-rendering:geometricPrecision; text-rendering:geometricPrecision; image-rendering:optimizeQuality; fill-rule:evenodd; clip-rule:evenodd"
viewBox="0 0 51200 8800"
 xmlns:xlink="http://www.w3.org/1999/xlink">
 <defs>
  <style type="text/css">
   <![CDATA[
    .fil0 {fill:#333A56}
    .fil1 {fill:#52658F}
    .fil4 {fill:#52658F;fill-rule:nonzero}
    .fil3 {fill:#6C1E92;fill-rule:nonzero}
    .fil2 {fill:url(#id0);fill-rule:nonzero}
   ]]>
  </style>
  <linearGradient id="id0" gradientUnits="userSpaceOnUse" x1="8803.26" y1="4518.79" x2="-35.9056" y2="4281.15">
   <stop offset="0" style="stop-opacity:1; stop-color:#75199C"/>
   <stop offset="1" style="stop-opacity:1; stop-color:#333A56"/>
  </linearGradient>
 </defs>
 <g id="Layer_x0020_1">
  <metadata id="CorelCorpID_0Corel-Layer"/>
  <g id="_446954144">
   <g>
    <path class="fil0" d="M4370 2310c1154,0 2089,936 2089,2090 0,1154 -935,2090 -2089,2090 -1154,0 -2090,-936 -2090,-2090 0,-1154 936,-2090 2090,-2090zm0 842c689,0 1248,559 1248,1248 0,689 -559,1248 -1248,1248 -690,0 -1248,-559 -1248,-1248 0,-689 558,-1248 1248,-1248z"/>
    <path class="fil0" d="M7653 4185l0 394c0,125 -102,227 -226,227l0 0c-125,0 -227,-102 -227,-227l0 -394c0,-125 102,-227 227,-227l0 0c124,0 226,102 226,227z"/>
    <path class="fil0" d="M1680 4967l0 -1098c0,-125 102,-227 226,-227l0 0c125,0 227,102 227,227l0 1098c0,125 -102,227 -227,227l0 0c-124,0 -226,-102 -226,-227z"/>
    <path class="fil0" d="M1086 4623l0 -410c0,-125 102,-227 227,-227l0 0c125,0 227,102 227,227l0 410c0,125 -102,227 -227,227l0 0c-125,0 -227,-102 -227,-227z"/>
    <path class="fil0" d="M7060 3833l0 1098c0,125 -102,227 -227,227l0 0c-125,0 -227,-102 -227,-227l0 -1098c0,-125 102,-227 227,-227l0 0c125,0 227,102 227,227z"/>
    <path class="fil1" d="M4636 3945l589 340 0 0c20,12 37,29 50,51 37,65 15,149 -51,187l-589 340 -577 333c-23,16 -50,26 -80,26 -76,0 -138,-62 -138,-138l0 -680 1 -680c0,-23 6,-47 18,-68 38,-66 122,-89 187,-51l582 336c3,1 5,3 8,4z"/>
    <path class="fil2" d="M3775 912l-2880 2879 0 0c-165,165 -248,383 -248,602l-1 0c0,218 83,436 249,602l0 0 0 0 2894 2893c165,166 383,248 602,248 219,0 437,-82 602,-246l0 -2 2879 -2879 0 0 1 1c164,-165 247,-384 247,-603 0,-218 -83,-436 -248,-602l0 0 -2894 -2893 0 0c-166,-166 -384,-250 -602,-250l0 2c-219,0 -437,82 -602,247l1 0 0 1zm-3345 2413l2879 -2879 0 0 1 0c294,-294 681,-441 1066,-441l0 1c388,0 775,147 1068,440l0 0 2894 2894 0 0c294,294 441,680 441,1067 0,386 -147,773 -441,1066l0 2 0 0 -2880 2879 0 -1c-295,295 -682,442 -1067,442 -387,0 -774,-147 -1068,-441l-2893 -2894 0 0 0 -1c-293,-293 -440,-680 -440,-1066l-1 0c0,-387 147,-774 441,-1068l0 0z"/>
   </g>
   <g>
    <path class="fil3" d="M12151 1321l480 0 607 1817 610 -1817 479 0 437 2605 -479 0 -278 -1646 -551 1646 -438 0 -549 -1646 -284 1646 -484 0 450 -2605zm3976 678l489 0 0 927c0,180 13,305 38,375 25,70 65,125 120,164 55,39 123,58 203,58 81,0 150,-19 206,-57 56,-38 98,-95 125,-169 20,-56 31,-174 31,-355l0 -943 482 0 0 815c0,337 -27,566 -80,690 -64,152 -161,267 -287,348 -126,81 -287,121 -482,121 -212,0 -382,-47 -513,-141 -130,-95 -222,-226 -275,-395 -39,-116 -57,-329 -57,-636l0 -802zm4372 273l-299 301c-121,-121 -231,-182 -330,-182 -54,0 -96,12 -127,35 -31,23 -46,51 -46,85 0,26 10,50 29,71 19,22 68,52 144,90l177 88c186,91 314,185 384,280 69,96 104,207 104,335 0,171 -63,313 -189,427 -125,114 -294,171 -506,171 -280,0 -505,-109 -673,-329l298 -324c57,66 124,120 200,160 77,41 144,61 204,61 63,0 115,-15 154,-46 39,-30 58,-66 58,-105 0,-75 -70,-147 -211,-218l-162 -81c-312,-157 -468,-353 -468,-588 0,-152 58,-282 176,-389 117,-108 267,-162 449,-162 126,0 243,28 354,83 110,55 203,134 280,237zm1624 -1064c85,0 157,31 218,92 61,61 91,135 91,222 0,86 -30,159 -90,220 -60,60 -132,90 -216,90 -86,0 -159,-30 -220,-92 -61,-62 -91,-137 -91,-225 0,-85 30,-157 90,-216 60,-60 133,-91 218,-91zm-243 791l483 0 0 1927 -483 0 0 -1927zm3823 392l-402 221c-76,-79 -150,-133 -224,-164 -74,-31 -160,-46 -260,-46 -180,0 -327,54 -438,161 -112,108 -168,245 -168,413 0,163 54,296 161,400 108,103 249,154 424,154 215,0 384,-73 505,-221l380 261c-207,269 -498,403 -875,403 -339,0 -605,-100 -796,-300 -192,-201 -288,-435 -288,-703 0,-186 46,-358 139,-514 94,-157 224,-280 392,-370 166,-89 353,-134 560,-134 192,0 364,38 516,114 152,77 277,185 374,325zm2267 -1070l1440 0 0 490 -475 0 0 2115 -505 0 0 -2115 -460 0 0 -490zm4667 1778l-1551 0c22,137 82,246 179,328 96,81 220,122 370,122 181,0 335,-64 464,-191l405 192c-101,144 -222,250 -363,320 -142,69 -309,103 -503,103 -301,0 -547,-95 -736,-285 -189,-190 -284,-429 -284,-714 0,-294 95,-537 284,-731 189,-194 426,-291 712,-291 303,0 550,97 740,290 190,193 285,448 285,765l-2 92zm-481 -378c-32,-105 -95,-191 -189,-257 -94,-66 -203,-98 -327,-98 -135,0 -253,37 -355,111 -64,46 -123,128 -178,244l1049 0zm1887 -722l482 0 0 225c83,-91 175,-159 277,-204 101,-45 211,-68 331,-68 120,0 230,30 327,89 97,59 175,146 234,260 77,-114 171,-201 283,-260 112,-59 235,-89 367,-89 137,0 258,32 362,96 105,63 179,147 225,249 46,103 69,270 69,501l0 1128 -483 0 0 -974c0,-217 -27,-365 -82,-442 -55,-76 -138,-115 -247,-115 -85,0 -160,23 -225,71 -67,46 -117,111 -149,194 -32,83 -48,216 -48,400l0 866 -482 0 0 -930c0,-171 -13,-296 -39,-373 -25,-77 -64,-134 -115,-172 -52,-37 -114,-56 -186,-56 -81,0 -155,23 -221,71 -67,48 -116,114 -149,200 -32,86 -49,222 -49,406l0 854 -482 0 0 -1927zm4912 0l0 212c87,-86 181,-151 283,-194 101,-43 210,-65 326,-65 251,0 464,95 640,284 176,190 264,433 264,730 0,286 -91,526 -273,718 -181,193 -397,289 -646,289 -111,0 -214,-20 -310,-59 -95,-39 -190,-104 -284,-194l0 910 -483 0 0 -2631 483 0zm506 396c-151,0 -278,52 -377,155 -101,104 -151,240 -151,407 0,171 50,310 151,415 99,106 226,158 377,158 148,0 272,-53 373,-160 101,-108 151,-245 151,-411 0,-165 -49,-301 -149,-406 -98,-106 -223,-158 -375,-158zm2371 -1139l482 0 0 2670 -482 0 0 -2670zm3361 743l483 0 0 1927 -483 0 0 -205c-94,89 -189,154 -284,193 -95,39 -198,59 -309,59 -250,0 -465,-96 -647,-289 -182,-192 -273,-432 -273,-718 0,-297 89,-540 265,-730 176,-189 389,-284 641,-284 116,0 224,22 326,65 101,43 195,108 281,194l0 -212zm-508 396c-150,0 -275,52 -373,158 -99,105 -149,241 -149,406 0,166 50,303 151,411 101,107 225,160 373,160 151,0 278,-52 378,-158 100,-105 150,-244 150,-415 0,-167 -50,-303 -150,-407 -100,-103 -227,-155 -380,-155zm2551 -1107l483 0 0 711 286 0 0 418 -286 0 0 1509 -483 0 0 -1509 -247 0 0 -418 247 0 0 -711zm3974 1811l-1552 0c23,137 83,246 179,328 97,81 221,122 371,122 180,0 335,-64 464,-191l405 192c-101,144 -222,250 -363,320 -142,69 -309,103 -503,103 -302,0 -547,-95 -736,-285 -190,-190 -285,-429 -285,-714 0,-294 95,-537 285,-731 189,-194 426,-291 712,-291 303,0 550,97 740,290 189,193 284,448 284,765l-1 92zm-481 -378c-32,-105 -95,-191 -189,-257 -94,-66 -203,-98 -328,-98 -134,0 -252,37 -355,111 -63,46 -122,128 -177,244l1049 0z"/>
    <path class="fil4" d="M14883 6859l131 -79c92,170 199,256 320,256 52,0 100,-13 146,-37 45,-24 80,-56 103,-96 24,-41 36,-84 36,-129 0,-52 -17,-102 -52,-152 -49,-68 -137,-151 -265,-247 -129,-97 -209,-167 -240,-211 -55,-72 -82,-151 -82,-235 0,-67 16,-128 48,-184 32,-55 78,-98 136,-130 59,-32 122,-47 191,-47 73,0 141,17 205,54 63,35 130,102 201,198l-126 95c-58,-77 -108,-127 -149,-152 -41,-24 -86,-37 -134,-37 -63,0 -114,19 -154,57 -40,38 -60,84 -60,139 0,34 8,66 21,98 15,31 40,65 78,102 20,20 86,71 199,154 134,99 226,187 276,263 50,77 75,154 75,232 0,112 -43,209 -128,291 -85,83 -188,124 -310,124 -94,0 -179,-25 -255,-75 -76,-50 -147,-134 -211,-252zm1255 -1319c34,0 62,12 85,35 24,24 36,53 36,86 0,33 -12,62 -36,85 -23,24 -51,36 -85,36 -33,0 -61,-12 -84,-36 -24,-23 -36,-52 -36,-85 0,-33 12,-62 36,-86 23,-23 51,-35 84,-35zm-72 468l146 0 0 1139 -146 0 0 -1139zm451 0l146 0 0 197c51,-73 103,-126 157,-160 74,-43 152,-65 234,-65 55,0 107,10 157,32 50,22 90,51 122,86 31,37 58,88 82,155 48,-89 109,-157 182,-203 74,-47 152,-70 237,-70 79,0 148,20 208,59 61,40 105,96 135,167 29,71 44,178 44,320l0 621 -150 0 0 -621c0,-123 -9,-206 -27,-252 -17,-46 -47,-83 -89,-111 -42,-28 -92,-42 -151,-42 -71,0 -136,21 -195,63 -58,42 -101,98 -129,168 -27,69 -40,186 -40,349l0 446 -146 0 0 -583c0,-137 -9,-231 -26,-280 -17,-49 -47,-89 -90,-118 -43,-30 -93,-45 -152,-45 -68,0 -131,21 -190,61 -59,41 -103,96 -131,165 -28,69 -42,175 -42,318l0 482 -146 0 0 -1139zm2015 0l146 0 0 209c58,-80 124,-139 200,-178 75,-40 159,-59 252,-59 163,0 301,58 416,174 115,116 173,257 173,420 0,168 -57,309 -171,426 -115,117 -252,175 -414,175 -90,0 -173,-19 -250,-56 -76,-38 -145,-94 -206,-169l0 614 -146 0 0 -1556zm588 113c-127,0 -234,44 -320,133 -87,88 -131,198 -131,329 0,86 20,164 58,233 39,69 94,123 166,164 72,40 149,60 229,60 78,0 152,-20 222,-61 69,-41 124,-98 165,-171 41,-73 62,-149 62,-229 0,-81 -21,-157 -61,-229 -41,-73 -96,-129 -165,-169 -69,-40 -144,-60 -225,-60zm853 -553l145 0 0 1579 -145 0 0 -1579zm1413 1202l124 65c-41,79 -88,143 -141,191 -54,49 -113,86 -180,111 -67,26 -142,38 -226,38 -187,0 -332,-61 -438,-182 -105,-122 -157,-259 -157,-412 0,-145 44,-273 134,-386 112,-143 263,-215 453,-215 195,0 351,73 467,220 83,104 125,234 126,389l-1030 0c3,132 45,240 127,324 83,85 184,127 305,127 58,0 115,-10 170,-30 55,-20 102,-47 141,-80 38,-33 80,-86 125,-160zm1 -307c-19,-79 -48,-141 -86,-188 -38,-47 -87,-84 -149,-113 -62,-29 -127,-43 -195,-43 -113,0 -209,36 -290,108 -60,52 -104,131 -134,236l854 0zm592 452c36,0 66,13 91,38 25,25 38,56 38,92 0,36 -13,66 -38,92 -25,25 -55,38 -91,38 -35,0 -66,-13 -91,-38 -25,-26 -38,-56 -38,-92 0,-36 13,-67 38,-92 25,-25 56,-38 91,-38zm1051 -1309l155 0 0 1391 594 0 0 150 -749 0 0 -1541zm1019 -66c33,0 61,12 85,35 24,24 35,53 35,86 0,33 -11,62 -35,85 -24,24 -52,36 -85,36 -33,0 -61,-12 -85,-36 -23,-23 -35,-52 -35,-85 0,-33 12,-62 35,-86 24,-23 52,-35 85,-35zm-73 468l146 0 0 1139 -146 0 0 -1139zm1436 0l146 0 0 907c0,159 -14,276 -42,350 -38,105 -104,185 -200,242 -94,56 -208,84 -341,84 -98,0 -186,-13 -264,-41 -77,-28 -141,-65 -190,-112 -48,-47 -93,-115 -135,-205l159 0c44,76 99,132 168,169 68,36 154,54 255,54 100,0 184,-18 253,-55 69,-37 118,-84 147,-140 30,-56 44,-146 44,-272l0 -59c-55,70 -122,124 -202,161 -79,38 -164,56 -254,56 -105,0 -203,-26 -295,-78 -92,-52 -164,-122 -214,-209 -51,-88 -76,-185 -76,-290 0,-106 27,-204 79,-295 52,-91 125,-163 218,-216 92,-53 190,-79 293,-79 85,0 164,17 238,52 74,35 145,93 213,174l0 -198zm-433 113c-83,0 -160,20 -231,60 -72,40 -127,96 -168,167 -40,71 -60,147 -60,230 0,125 41,228 125,310 84,81 192,122 326,122 134,0 243,-41 325,-121 82,-82 123,-188 123,-320 0,-86 -19,-162 -57,-229 -37,-68 -91,-121 -160,-160 -69,-39 -143,-59 -223,-59zm892 -553l146 0 0 645c60,-78 125,-136 197,-175 71,-39 148,-58 232,-58 85,0 161,21 227,64 66,44 115,102 147,175 31,73 47,187 47,342l0 586 -146 0 0 -543c0,-131 -5,-218 -15,-262 -19,-75 -52,-132 -100,-170 -48,-38 -111,-57 -189,-57 -89,0 -169,29 -239,88 -71,58 -117,131 -140,217 -14,56 -21,159 -21,310l0 417 -146 0 0 -1579zm1436 15l146 0 0 425 232 0 0 126 -232 0 0 1013 -146 0 0 -1013 -200 0 0 -126 200 0 0 -425zm446 425l151 0 348 826 364 -826 27 0 364 826 355 -826 151 0 -493 1139 -28 0 -362 -815 -364 815 -29 0 -484 -1139zm2900 762l124 65c-41,79 -88,143 -141,191 -53,49 -113,86 -180,111 -66,26 -142,38 -226,38 -186,0 -332,-61 -437,-182 -105,-122 -158,-259 -158,-412 0,-145 45,-273 134,-386 113,-143 264,-215 453,-215 195,0 351,73 467,220 83,104 125,234 126,389l-1030 0c3,132 46,240 128,324 82,85 184,127 304,127 58,0 115,-10 170,-30 55,-20 102,-47 141,-80 39,-33 80,-86 125,-160zm2 -307c-20,-79 -49,-141 -86,-188 -38,-47 -88,-84 -150,-113 -62,-29 -127,-43 -195,-43 -112,0 -209,36 -290,108 -59,52 -104,131 -134,236l855 0zm482 -923c33,0 61,12 85,35 23,24 35,53 35,86 0,33 -12,62 -35,85 -24,24 -52,36 -85,36 -33,0 -61,-12 -85,-36 -23,-23 -35,-52 -35,-85 0,-33 12,-62 35,-86 24,-23 52,-35 85,-35zm-73 468l146 0 0 1139 -146 0 0 -1139zm1436 0l146 0 0 907c0,159 -14,276 -42,350 -38,105 -104,185 -200,242 -94,56 -208,84 -342,84 -97,0 -185,-13 -263,-41 -77,-28 -141,-65 -190,-112 -48,-47 -94,-115 -135,-205l159 0c43,76 99,132 168,169 68,36 153,54 255,54 100,0 184,-18 253,-55 69,-37 118,-84 147,-140 30,-56 44,-146 44,-272l0 -59c-55,70 -122,124 -202,161 -80,38 -164,56 -254,56 -105,0 -203,-26 -295,-78 -93,-52 -164,-122 -214,-209 -51,-88 -76,-185 -76,-290 0,-106 26,-204 79,-295 52,-91 125,-163 218,-216 92,-53 190,-79 292,-79 86,0 165,17 239,52 74,35 145,93 213,174l0 -198zm-433 113c-83,0 -160,20 -231,60 -72,40 -127,96 -168,167 -40,71 -61,147 -61,230 0,125 42,228 126,310 84,81 192,122 326,122 134,0 243,-41 325,-121 82,-82 123,-188 123,-320 0,-86 -19,-162 -57,-229 -37,-68 -91,-121 -160,-160 -69,-39 -143,-59 -223,-59zm892 -553l146 0 0 645c60,-78 125,-136 197,-175 71,-39 148,-58 232,-58 85,0 161,21 227,64 66,44 115,102 147,175 31,73 47,187 47,342l0 586 -146 0 0 -543c0,-131 -5,-218 -16,-262 -18,-75 -51,-132 -99,-170 -48,-38 -111,-57 -189,-57 -89,0 -169,29 -239,88 -71,58 -117,131 -140,217 -14,56 -21,159 -21,310l0 417 -146 0 0 -1579zm1436 15l146 0 0 425 231 0 0 126 -231 0 0 1013 -146 0 0 -1013 -200 0 0 -126 200 0 0 -425zm761 1332c36,0 66,13 92,38 24,25 37,56 37,92 0,36 -13,66 -37,92 -26,25 -56,38 -92,38 -35,0 -66,-13 -91,-38 -25,-26 -38,-56 -38,-92 0,-36 13,-67 38,-92 25,-25 56,-38 91,-38zm1060 -1309l307 0c172,0 288,7 349,21 92,21 166,66 223,135 58,69 87,153 87,254 0,83 -20,157 -60,221 -39,63 -96,111 -169,144 -74,32 -175,49 -305,49l555 717 -189 0 -555 -717 -89 0 0 717 -154 0 0 -1541zm154 150l0 524 266 2c104,0 180,-9 229,-29 50,-20 88,-51 116,-94 28,-43 42,-91 42,-144 0,-51 -14,-99 -42,-141 -28,-42 -65,-72 -111,-90 -45,-19 -121,-28 -227,-28l-273 0zm2079 1014l123 65c-40,79 -87,143 -141,191 -53,49 -113,86 -179,111 -67,26 -142,38 -226,38 -187,0 -333,-61 -438,-182 -105,-122 -157,-259 -157,-412 0,-145 44,-273 133,-386 113,-143 264,-215 453,-215 195,0 351,73 468,220 82,104 125,234 126,389l-1030 0c3,132 45,240 127,324 82,85 184,127 304,127 59,0 116,-10 171,-30 55,-20 102,-47 140,-80 39,-33 81,-86 126,-160zm1 -307c-20,-79 -48,-141 -86,-188 -38,-47 -88,-84 -149,-113 -62,-29 -127,-43 -195,-43 -113,0 -210,36 -291,108 -59,52 -103,131 -134,236l855 0zm1006 -332l-94 98c-79,-76 -156,-114 -230,-114 -48,0 -89,16 -123,47 -34,31 -51,68 -51,110 0,37 14,72 42,105 28,35 87,75 176,121 109,56 183,111 223,163 38,53 57,113 57,179 0,94 -33,173 -99,238 -65,65 -148,97 -246,97 -66,0 -129,-14 -189,-43 -60,-28 -109,-68 -148,-118l92 -105c75,84 154,127 239,127 58,0 108,-19 150,-57 41,-38 62,-82 62,-133 0,-41 -14,-79 -41,-112 -28,-32 -89,-72 -185,-121 -103,-53 -173,-105 -210,-156 -37,-52 -56,-111 -56,-177 0,-86 30,-158 89,-215 59,-57 134,-85 225,-85 105,0 211,50 317,151zm260 -123l146 0 0 209c58,-80 125,-139 200,-178 76,-40 160,-59 253,-59 162,0 300,58 415,174 115,116 173,257 173,420 0,168 -57,309 -171,426 -114,117 -252,175 -413,175 -91,0 -174,-19 -250,-56 -77,-38 -145,-94 -207,-169l0 614 -146 0 0 -1556zm588 113c-127,0 -234,44 -320,133 -87,88 -130,198 -130,329 0,86 19,164 58,233 38,69 94,123 166,164 72,40 148,60 228,60 78,0 152,-20 222,-61 69,-41 124,-98 165,-171 42,-73 62,-149 62,-229 0,-81 -20,-157 -61,-229 -41,-73 -96,-129 -165,-169 -68,-40 -144,-60 -225,-60zm1415 -141c175,0 321,63 437,190 105,115 157,253 157,411 0,158 -55,297 -166,416 -111,119 -254,178 -428,178 -176,0 -319,-59 -430,-178 -111,-119 -167,-258 -167,-416 0,-158 53,-294 158,-410 116,-128 262,-191 439,-191zm-1 143c-122,0 -226,45 -314,135 -88,90 -131,199 -131,326 0,82 20,158 59,229 40,71 94,126 162,165 68,38 143,58 224,58 81,0 156,-20 224,-58 67,-39 121,-94 162,-165 39,-71 59,-147 59,-229 0,-127 -44,-236 -132,-326 -87,-90 -192,-135 -313,-135zm866 -115l146 0 0 204c59,-78 124,-136 195,-175 71,-38 149,-57 233,-57 85,0 161,21 228,64 66,44 115,102 146,175 32,73 47,187 47,342l0 586 -145 0 0 -543c0,-131 -6,-218 -17,-262 -18,-75 -51,-132 -99,-170 -49,-38 -112,-57 -189,-57 -89,0 -169,29 -239,88 -71,58 -117,131 -139,217 -14,57 -21,160 -21,310l0 417 -146 0 0 -1139zm1884 123l-95 98c-78,-76 -155,-114 -230,-114 -47,0 -88,16 -122,47 -34,31 -51,68 -51,110 0,37 14,72 42,105 27,35 86,75 176,121 109,56 183,111 222,163 38,53 58,113 58,179 0,94 -33,173 -99,238 -66,65 -148,97 -247,97 -66,0 -128,-14 -188,-43 -60,-28 -110,-68 -149,-118l92 -105c75,84 155,127 239,127 59,0 109,-19 150,-57 41,-38 62,-82 62,-133 0,-41 -13,-79 -41,-112 -27,-32 -89,-72 -185,-121 -103,-53 -173,-105 -210,-156 -37,-52 -55,-111 -55,-177 0,-86 29,-158 88,-215 60,-57 135,-85 225,-85 105,0 211,50 318,151zm309 -591c33,0 61,12 85,35 23,24 35,53 35,86 0,33 -12,62 -35,85 -24,24 -52,36 -85,36 -33,0 -61,-12 -85,-36 -23,-23 -35,-52 -35,-85 0,-33 12,-62 35,-86 24,-23 52,-35 85,-35zm-73 468l146 0 0 1139 -146 0 0 -1139zm344 0l153 0 384 832 381 -832 157 0 -521 1139 -28 0 -526 -1139zm2259 762l124 65c-41,79 -88,143 -141,191 -54,49 -113,86 -180,111 -67,26 -142,38 -226,38 -187,0 -332,-61 -438,-182 -105,-122 -157,-259 -157,-412 0,-145 44,-273 134,-386 112,-143 264,-215 453,-215 195,0 351,73 467,220 83,104 125,234 126,389l-1030 0c3,132 45,240 127,324 82,85 184,127 305,127 58,0 115,-10 170,-30 55,-20 102,-47 141,-80 38,-33 80,-86 125,-160zm1 -307c-19,-79 -48,-141 -86,-188 -38,-47 -87,-84 -149,-113 -62,-29 -127,-43 -195,-43 -113,0 -209,36 -290,108 -60,52 -104,131 -134,236l854 0zm592 452c36,0 66,13 91,38 25,25 38,56 38,92 0,36 -13,66 -38,92 -25,25 -55,38 -91,38 -35,0 -66,-13 -91,-38 -25,-26 -38,-56 -38,-92 0,-36 13,-67 38,-92 25,-25 56,-38 91,-38z"/>
   </g>
  </g>
 </g>
</svg>
